<?xml version="1.0" encoding="UTF-8"?>
<!DOCTYPE svg PUBLIC "-//W3C//DTD SVG 1.1//EN" "http://www.w3.org/Graphics/SVG/1.1/DTD/svg11.dtd">
<!-- Creator: CorelDRAW X7 -->
<svg xmlns="http://www.w3.org/2000/svg" xml:space="preserve" width="64.862mm" height="25.9mm" version="1.1" style="shape-rendering:geometricPrecision; text-rendering:geometricPrecision; image-rendering:optimizeQuality; fill-rule:evenodd; clip-rule:evenodd" viewBox="0 0 6486 2590" xmlns:xlink="http://www.w3.org/1999/xlink" data-ember-extension="1">
 <defs>
  <style type="text/css">
   <![CDATA[
    .fil0 {fill:#FEFEFE}
   ]]>
  </style>
 </defs>
 <g id="Camada_x0020_1">
  <metadata id="CorelCorpID_0Corel-Layer"/>
  <g id="_662729600">
   <path class="fil0" d="M1355 654c0,0 2,-2 0,3 -9,17 -20,28 -32,43l-2 2 -14 15 -10 8 0 1c-4,6 4,-13 -5,13l0 0c1,0 -2,2 7,10 32,-4 19,-13 22,-11l2 -6 30 -88c0,2 0,2 0,-2 4,-11 10,-28 15,-44l4 -8c0,-2 0,-4 0,-4l7 -20c19,-82 77,-183 60,-243 8,-13 -4,-62 -2,-22 2,28 -3,65 -11,93 6,-4 -13,65 -6,52 -5,19 -15,47 -13,47 2,6 -2,21 -11,69 -4,21 -7,49 -7,56 0,11 3,-24 3,-13 8,-71 38,-138 55,-211 -4,-39 39,-71 -19,-119 -9,22 -9,41 -11,59l-2 30c7,9 -13,0 17,28 20,-7 26,-17 9,-41 -45,41 -50,121 -93,224 -15,49 -34,99 -49,140 9,6 -28,11 19,17 -6,28 5,0 7,4l21 -21c11,-15 20,-28 28,-37l3 -8c28,-43 47,-99 57,-138 5,-18 9,-37 13,-56 -2,8 -6,15 -8,23 6,-19 9,-38 9,-45 8,-41 2,-19 -3,-4 -4,11 -2,-4 -8,13 4,-13 4,-19 8,-32 0,-1 -8,40 -8,30l8 -37c-2,4 -10,43 -11,41 1,-7 11,-35 9,-37 0,-2 -4,11 -4,16 8,-37 8,-59 0,-24 4,-13 8,-30 9,-43l0 0c-1,8 -3,19 -5,25l4 -23 0 4 -4 17 2 -15 -4 13c-4,17 -7,33 -9,43 -17,74 -40,149 -77,213l0 0z"/>
   <path class="fil0" d="M1708 616c0,-2 -2,-5 2,0 13,17 19,34 37,49l2 0c2,4 8,5 11,9 6,-11 -7,28 17,-22l-4 -4 -15 -13c-16,-21 -33,-45 -46,-73 0,2 0,2 -2,0 -6,-11 -11,-28 -19,-43l-4 -7c0,-2 -1,-2 -1,-2l-8 -21c-19,-41 -33,-82 -50,-125 -13,-11 -4,-61 -36,-45 4,23 10,47 15,71l17 58c7,28 17,66 26,92 2,-4 30,59 28,45 6,18 21,42 21,42 5,2 13,17 46,51 13,15 36,26 43,28 8,2 -20,-11 -11,-8 -106,-80 -132,-242 -160,-379 -14,0 26,-16 -30,-3 2,5 3,11 5,18 6,13 11,30 17,49 13,39 32,86 52,132 21,49 41,98 73,135 8,9 19,17 28,24 30,-41 -4,-19 0,-33 -11,-12 -19,-23 -24,-32l-6 -6c-22,-39 -45,-93 -59,-131l-19 -52c2,10 4,17 5,24 -5,-18 -9,-37 -11,-42 -9,-40 -7,-17 -5,-2 0,11 -4,-4 -2,15 -2,-13 -4,-19 -6,-32 -2,-2 8,37 6,30l-10 -38c0,4 10,43 8,41 -2,-5 -6,-35 -8,-37 0,0 2,11 4,19 -9,-39 -11,-62 -9,-24 -2,-14 -2,-32 2,-47l0 0c-2,7 -4,20 -4,26 0,-7 0,-15 2,-24l0 3c-2,8 -2,14 -2,19 0,-5 -2,-9 0,-17l-2 15c0,19 2,38 4,47 15,76 43,151 82,220l0 0z"/>
   <path class="fil0" d="M1549 781c0,0 -5,-2 4,-2 26,0 49,2 75,2l2 -2 65 2 121 0c-2,-2 -2,-2 2,-2l8 0c0,-12 2,24 2,-25l-4 0 -15 0 -36 -1 -9 0c-4,0 -4,0 -6,0 -9,0 -18,0 -28,-2 -117,-4 -240,-17 -369,13l-40 11c6,20 27,6 38,11 39,-2 89,-15 125,-30 -8,0 80,-33 62,-30 24,-9 61,-16 63,-18 4,-4 26,-11 93,-13 27,-2 71,7 81,11 15,4 -36,-11 -21,-8 -103,-18 -203,4 -291,43 -45,19 -92,32 -136,26l-8 -1 -4 0c2,13 -2,-27 2,28l0 -2 6 0 17 -6 33 -7c25,-4 49,-8 73,-10 34,-5 163,-2 299,8l52 2c6,-12 24,24 19,-25l-24 0c-34,0 -68,0 -98,0 -59,0 -110,0 -140,0l-9 0c-63,0 -142,0 -196,2l-75 2c11,0 23,2 32,2 -26,0 -50,0 -62,0 -54,2 -22,4 -1,6 14,0 -6,1 18,3 -17,0 -26,-2 -43,-2 -2,2 53,0 41,2 -17,0 -35,0 -52,0 6,2 60,0 56,2 -9,0 -47,-2 -50,0 0,0 16,0 24,0 -52,0 -80,2 -34,4 -17,0 -39,0 -58,0l2 0c8,0 23,0 32,0l-30 0 4 0 24 0 -20 0 16 2c25,2 47,2 60,2l308 2 0 0z"/>
   <path class="fil0" d="M1465 1343c0,0 -5,-2 4,-2 30,0 54,2 82,2l4 -2 71 2 134 0c-2,-2 -2,-2 2,-2 19,0 45,0 71,0l11 0c4,0 4,0 6,0 11,0 22,0 32,0 56,-10 151,17 177,-23 -67,0 -136,-2 -207,-3l-92 -2c-43,0 -97,-2 -140,-2 6,2 -97,4 -76,7 -28,2 -69,2 -73,4 -6,4 -26,8 -101,17 -28,5 -73,11 -82,13 -15,4 37,-4 22,0 211,-37 422,-17 641,-11 13,-13 76,28 112,-26 -58,0 -133,0 -209,0 -152,0 -308,0 -374,0l-11 0c-71,0 -157,0 -217,1l-82 2c13,0 24,2 36,2 -28,0 -56,0 -68,0 -59,2 -26,4 -3,6 17,2 -6,2 20,4 -18,0 -28,0 -46,0 -2,0 57,0 44,1 -18,-1 -39,0 -57,0 7,0 65,0 63,2 -11,0 -54,-2 -58,-2 0,2 19,2 28,2 -58,0 -89,2 -37,4 -17,0 -43,-2 -64,-2l0 0c12,0 26,2 36,2l-32 0 6 0 24 0 -22 0 18 2c26,0 52,2 66,2l341 2 0 0z"/>
   <path class="fil0" d="M1555 127c-2,0 0,0 -2,0 -9,0 -17,-4 -24,-6l-2 2 -23 -5 -22 0c4,11 -20,-26 2,24l9 -4c-2,0 -2,-2 0,-2 4,-2 10,-5 17,-7l4 -2 2 -2c0,-13 11,23 2,-28 -8,0 -23,4 -25,0 -2,4 -11,-9 -5,9l5 -16c8,-21 8,-41 15,-60 0,-8 15,-15 8,-19 5,11 11,28 16,39 4,-3 17,25 17,19 0,9 6,21 8,19 3,2 9,4 24,24 4,9 6,26 6,30 2,6 0,-13 2,-8 -14,-48 -29,-52 -40,-93 -15,-11 11,-37 -45,-41 -20,17 -20,35 -26,52 0,6 -2,19 -9,34 -24,43 67,56 37,15 -11,4 -22,9 -33,17 3,54 18,15 26,28 19,2 35,5 45,7l3 0c-16,-17 -13,37 -16,49 -2,7 0,16 0,24l1 -9c0,7 0,16 0,20 0,19 2,8 6,0 2,-4 2,2 4,-5 0,5 0,9 0,14 0,0 0,-18 0,-13l0 17c2,-2 2,-20 4,-18 0,1 -4,15 -2,16 0,0 0,-5 0,-7 0,17 2,26 3,11 0,4 -1,13 -1,19l0 0c1,-4 1,-10 1,-11l0 9 0 -2 0 -7 0 7 2 -6c2,-7 4,-14 4,-18 -6,-43 24,-49 2,-116z"/>
   <path class="fil0" d="M1325 1221c-2,0 -2,6 -2,-3 2,-28 6,-51 8,-77l0 -2 2 -17c-4,-9 11,10 -10,-22l-7 -2 -34 -13c-20,-4 -43,-8 -65,-9 -11,0 -23,1 -34,3l-17 2c4,56 10,17 15,30 -1,0 -1,-2 2,0 19,0 43,4 67,6l12 0c3,0 3,0 3,0 12,0 23,2 32,2 123,3 247,-8 381,-6 28,0 56,0 84,2l32 2c15,-13 5,-23 11,-36 -2,-24 -4,-46 -7,-65 0,5 -23,-90 -21,-69 -6,-26 -13,-66 -15,-67 0,-4 -4,-10 -5,-25 7,-5 -25,-22 16,-24 0,11 0,26 0,45 -2,22 -7,67 -7,76 -2,15 5,-35 4,-20 1,-28 5,-49 7,-75l0 -19 2 -9 0 0c6,0 -58,-2 -32,0l0 0 0 0 0 2 0 2 2 5c0,14 0,27 2,40 7,50 20,99 28,147 4,24 7,49 4,71 35,4 -34,-2 -45,-2 -52,-3 -103,-3 -155,-3 -34,0 -170,7 -310,0 -34,11 -77,-32 -99,16 32,-5 63,-5 93,4 15,2 28,8 41,13 -2,-26 -3,17 -5,19 -4,26 -4,47 -6,61l0 12 -2 13c51,-11 13,-11 23,-15l-6 -26 -11 -51c-4,-33 -6,-67 -9,-95 -4,-26 -2,-52 -4,-77 0,12 -2,23 -2,32 0,-26 0,-52 0,-61 2,-56 -2,-27 -6,-4 0,15 -2,-6 -3,18 0,-16 0,-26 2,-44 -2,-2 -2,54 -2,43 0,-17 0,-36 2,-55 -4,6 -4,62 -4,58 -2,-9 2,-48 2,-52 0,0 -2,17 -2,26 2,-54 4,-84 -2,-35 2,-17 4,-41 4,-60l0 0c0,9 -2,26 -2,34l2 -32 0 5 -4 25 2 -21 -2 17c-4,24 -6,49 -8,62 0,54 -3,108 2,162 4,26 4,54 12,80l9 40 4 20 1 9c60,-7 17,-7 32,-11l0 0z"/>
   <path class="fil0" d="M1826 1018c0,2 0,-2 2,2 0,9 -2,18 -2,28l2 0 -2 24 3 45c0,-2 0,-2 2,0 0,5 2,15 2,24l0 4 2 0 2 11c5,22 9,43 19,63 11,8 -6,32 28,23l-4 -36 -2 -28c0,-15 2,-31 2,-46 -2,-8 -30,-13 -26,-12 -8,-7 -13,-20 -13,-20 -4,-2 -12,-8 -15,-36 0,-9 2,-24 2,-29 0,-6 -4,14 -4,7 -2,21 -2,39 5,60 -3,17 45,50 30,31 -2,36 0,71 0,107 58,2 10,-17 17,-32 -6,-18 -11,-41 -15,-65 -9,-47 -7,-99 -7,-120l0 -3c0,-23 0,-51 0,-70l-2 -28 -2 12c0,-10 0,-19 0,-23 -2,-18 -4,-7 -6,0 -2,6 -2,-2 -3,6 0,-6 0,-9 0,-15 0,0 0,19 0,15l0 -19c-2,2 -2,21 -4,21 0,-4 4,-17 2,-19 0,0 -2,6 -2,9 0,-18 0,-29 -2,-13 0,-5 0,-13 0,-20l0 0c0,4 0,9 0,11l0 -9 -2 2 0 7 0 -7 -2 5c0,9 -2,17 -2,23l-3 110 0 0z"/>
   <path class="fil0" d="M1096 1089c-15,0 -51,-25 -68,5 -9,17 -3,45 -3,82 0,86 216,70 352,55 47,-4 -20,-10 36,-8 -105,-2 -284,-19 -306,-41 3,-45 9,-93 -11,-93l0 0z"/>
   <path class="fil0" d="M2039 1066c-8,-56 102,-28 91,2 -7,24 -9,79 -13,101 -9,84 -276,67 -375,65 -41,-2 16,-15 -25,-15 105,0 193,-39 295,-31 38,-38 28,-51 30,-101 0,28 -2,-49 -3,-21l0 0z"/>
   <path class="fil0" d="M1379 1699c0,0 0,-3 2,2 0,21 -2,37 0,58l2 2 0 48 4 92c0,0 0,0 0,2 13,15 -24,30 30,50l0 -7c0,-2 0,-4 0,-4l3 -22c12,-90 12,-181 8,-280l-4 -62c0,-30 -2,-67 -2,-97 -3,4 -7,-66 -11,-52 0,-19 -2,-49 -2,-49 -4,-6 -7,-21 -11,-71 0,-21 0,-52 0,-60 0,-11 -2,28 -2,17 0,149 13,293 11,443 0,24 2,125 -15,226 10,1 -29,18 23,11l0 -19 -2 -39c0,-26 -2,-51 -2,-73 -2,-45 -4,-84 -4,-106l0 -8c-2,-48 -2,-106 -3,-147l-4 -58c0,9 0,17 0,24 0,-19 -2,-37 -2,-45 -2,-41 -4,-18 -6,-2 0,12 -1,-5 -3,13 0,-13 0,-18 0,-31 0,-2 2,39 0,30l0 -40c-2,6 0,45 -2,43 0,-7 2,-35 0,-39 0,0 0,13 0,19 -2,-39 -4,-62 -6,-25 0,-13 2,-29 0,-44l0 0c0,7 0,18 0,24l0 -22 0 3 0 19 0 -15 -2 11c0,19 -2,36 -2,45 0,78 0,157 2,235l0 0z"/>
   <path class="fil0" d="M1680 1780c2,0 0,-6 4,3 5,26 7,49 13,73l2 2 11 63 2 8c13,0 -30,6 30,0l0 -4 0 -15 0 -30 1 -61c-1,2 -1,2 -1,-2 0,-17 1,-39 1,-64l0 -11c0,-2 0,-2 0,-4 0,-11 0,-20 0,-29 0,-58 -3,-118 -13,-180 -5,-30 -11,-59 -20,-89 -9,-6 9,-23 -21,-17l0 24 0 47 2 82c0,39 -2,88 -4,127 4,-7 4,86 8,67 0,26 -2,64 -2,66 4,5 6,26 8,93 0,26 -2,67 -2,77 2,13 2,-36 3,-21 2,-97 4,-192 6,-289l4 -146 0 -73 0 -37 0 -17c-58,9 -13,11 -26,19 15,29 35,156 31,293 12,63 -28,144 23,190 -13,-60 -23,-108 -28,-136l-2 -11c-19,-62 -13,-135 -9,-189l1 -75c0,12 -1,23 -3,32 3,-26 3,-52 2,-61 -6,-55 -4,-25 -6,-4 0,15 -2,-4 -4,18 0,-16 2,-24 0,-41 0,-1 2,51 0,40 0,-17 0,-34 -4,-51 2,6 4,58 2,56 0,-9 0,-48 -2,-50 -1,-2 2,15 2,24 -5,-52 -15,-78 -7,-32 0,-16 -8,-37 -13,-54l0 0c4,8 7,23 9,30l-9 -28 2 6 5 20 -5 -18 3 16c6,21 4,43 6,54 4,99 -28,206 0,309l0 0z"/>
   <path class="fil0" d="M1564 1632c0,0 -4,0 2,-2 13,-2 26,0 39,0l2 0c11,0 21,4 32,8 19,7 35,18 47,33 1,0 1,0 1,0 6,8 14,17 15,30l2 4 2 2c2,5 4,11 4,15l2 24 2 6 0 1 0 0c-8,0 61,-5 31,-3l0 0 0 0 0 0 0 0 0 -4 -3 -13c-6,-19 -13,-36 -19,-52 -17,-34 -39,-66 -69,-92 -11,-13 -26,-20 -39,-30 -21,-11 -49,-22 -73,-28 4,4 -52,6 -41,11 -13,0 -36,6 -36,8 -2,4 -11,9 -41,32 -13,5 -30,20 -33,24 -6,6 16,-9 11,-4 78,-76 205,-48 263,45 6,7 19,26 30,54 6,13 11,30 15,47l2 5 0 2 0 2c-8,0 69,-7 37,-4l0 0 0 0 0 -1 -2 -4 -2 -15c0,-11 0,-23 -5,-32 -21,-103 -142,-117 -172,-108l-8 2c-41,3 -85,24 -112,48 -11,11 -22,23 -29,38 3,-6 9,-12 15,-15 -14,11 -21,26 -23,31 -13,32 -2,15 6,4 5,-5 0,6 9,-5 -6,7 -7,13 -11,22 0,0 13,-28 11,-21 -6,8 -7,17 -11,27 2,-4 13,-30 15,-27 -4,2 -15,21 -13,25 2,0 3,-8 5,-13 -11,28 -7,43 -2,18 -3,8 -3,21 -5,30l0 0c2,-4 4,-13 4,-17l-2 15 0 -2 2 -11 0 10 1 -8c2,-13 12,-22 14,-28 22,-45 76,-75 130,-84l0 0z"/>
   <path class="fil0" d="M1516 1339c0,0 -2,0 2,-2 11,-2 20,-4 33,-4l0 -2c9,-1 19,2 28,2 17,4 34,8 47,19 0,0 0,0 2,0 5,4 13,11 20,19l2 3 2 2 7 11c8,10 15,23 21,34 11,0 -17,13 26,4l-4 -13c-3,-8 -3,-15 -9,-23 -19,-30 -56,-37 -86,-39 -15,-2 -28,0 -41,2 -19,0 -43,2 -60,6 2,0 -41,14 -30,16 -11,4 -28,12 -28,13 -1,4 -9,12 -29,32 -12,8 -19,21 -19,21 0,3 5,-6 5,-2 47,-64 157,-80 238,-60 5,4 22,9 31,28l6 17 2 4c50,-13 11,-6 22,-10l-3 -11c-8,-15 -17,-30 -27,-45 -43,-65 -134,-61 -158,-50l-6 0c-32,9 -65,28 -88,45l-28 24 15 -8c-11,8 -20,15 -24,19 -19,19 -6,9 4,6 5,-6 0,3 9,-4 -7,6 -9,7 -17,13 0,2 19,-17 15,-11l-17 15c2,0 21,-17 21,-15 -4,2 -19,13 -19,15 0,0 6,-4 10,-8 -19,17 -27,28 -10,13 -5,6 -13,13 -18,19l0 0c1,-2 7,-7 11,-9l-11 9 1 -2 10 -5 -8 5 8 -4c7,-7 17,-13 20,-18 38,-30 79,-56 122,-71l0 0z"/>
   <path class="fil0" d="M1232 1759c0,0 -2,2 -2,-2 0,-7 0,-13 0,-22l-2 0 0 -19 -2 -35c0,0 0,0 0,-2 -2,-4 -2,-11 -2,-19l0 -2 0 -2 -2 -9c-1,-34 -5,-69 -5,-108l0 -25c0,-11 4,-26 5,-37 -3,2 0,-26 -5,-20 2,-8 4,-19 4,-21 -2,-2 -4,-7 1,-28 2,-8 8,-21 10,-22 0,-6 -6,9 -6,3 -26,58 -28,116 -32,176 0,20 6,157 10,192l0 2c0,19 2,43 4,58l3 22 2 -9c0,7 0,15 0,17 2,17 4,7 6,2 2,-6 3,2 3,-6 0,6 0,8 0,13 2,0 0,-17 2,-13l0 15c2,-2 0,-17 2,-17 0,4 -2,15 0,17 0,0 0,-6 0,-7 0,14 2,24 4,9l0 17 0 0 0 -10 0 10 2 -2 0 -8 0 6 0 -4c2,-7 4,-15 4,-18 0,-30 -2,-62 -4,-92l0 0z"/>
   <path class="fil0" d="M1084 1468c0,0 2,-2 2,2 0,7 -2,13 0,20l0 0 0 19 2 33c0,-1 0,-1 0,0 0,4 0,12 0,17l0 4 2 2 0 7c2,34 4,66 6,103l1 22c2,12 0,25 0,36 4,-2 6,24 10,19 0,7 0,18 0,18 3,2 5,8 7,26 2,8 0,19 0,21 2,4 2,-9 4,-6 0,-54 0,-106 0,-162 -2,-19 -4,-146 -6,-178l0 -3c0,-19 -2,-39 -3,-54l-4 -21 -2 9c0,-7 0,-15 -2,-18 -2,-15 -4,-6 -5,0 0,5 -2,0 -4,5l0 -11c0,0 2,15 0,11l-2 -15c0,2 2,17 0,17 0,-4 0,-15 0,-15 -2,0 0,4 0,8 -2,-15 -4,-23 -6,-10l0 -16 0 0 0 9 0 -8 0 2 0 6 -2 -6 0 6c-1,6 -1,11 -1,15l3 86 0 0z"/>
   <path class="fil0" d="M1103 1374l0 -2c4,0 6,2 9,2l0 -2 8 2 15 0 0 0 7 0 0 0 0 -2 4 0c13,-1 26,-5 41,-9l9 -2 13 -2c0,-3 10,-5 6,-9 4,0 7,-2 7,-2 0,-4 2,-7 10,-9 2,0 7,0 7,-2 2,0 -3,0 -2,-2 -20,2 -41,8 -61,8 -8,5 -56,5 -67,3l-2 0c-6,-2 -13,-3 -19,-3l-9 1 3 2c-3,0 -5,-2 -7,-2 -6,0 -4,4 -2,6 2,2 0,2 2,4l-6 0c0,0 6,0 4,2l-5 -2c1,2 7,2 5,4 0,0 -4,-4 -5,-2 0,0 1,0 3,2 -5,-2 -9,-2 -5,1l-6 -1 0 0 4 1 -4 -1 0 0 2 1 -2 0 2 2c2,2 4,4 6,4l35 9 0 0z"/>
   <path class="fil0" d="M1103 1475l0 -2c4,0 6,2 9,2l0 0 8 0 15 0 0 0 7 0 0 0 0 0 4 0c13,-2 26,-7 41,-9l9 -4 13 -2c0,-2 10,-5 6,-9 4,0 7,0 7,-2 0,-2 2,-6 10,-9 2,0 7,0 7,0 2,-2 -3,-2 -2,-4 -20,2 -41,7 -61,9 -8,4 -56,4 -67,2l-2 0c-6,-2 -13,-2 -19,-2l-9 0 3 2c-3,0 -5,0 -7,0 -6,0 -4,2 -2,4 2,2 0,4 2,6l-6 -2c0,0 6,0 4,2l-5 -2c1,2 7,2 5,3 0,0 -4,-1 -5,-1 0,0 1,1 3,1 -5,-1 -9,0 -5,2l-6 -2 0 0 4 2 -4 -2 0 2 2 0 -2 0 2 2c2,2 4,4 6,4l35 9 0 0z"/>
   <path class="fil0" d="M1103 1572l0 -2c4,0 6,2 9,2l0 -2 8 2 15 0 0 -2 7 2 0 0 0 -2 4 0c13,-1 26,-5 41,-9l9 -2 13 -2c0,-3 10,-7 6,-9 4,0 7,-2 7,-2 0,-4 2,-7 10,-9 2,-2 7,0 7,-2 2,0 -3,-2 -2,-2 -20,2 -41,8 -61,8 -8,3 -56,5 -67,3l-2 0c-6,-2 -13,-3 -19,-3l-9 1 3 2c-3,-2 -5,-2 -7,-2 -6,0 -4,4 -2,6 2,2 0,2 2,4l-6 -2c0,2 6,2 4,4l-5 -2c1,2 7,2 5,3 0,0 -4,-3 -5,-1 0,0 1,0 3,0 -5,0 -9,0 -5,3l-6 -2 0 0 4 0 -4 0 0 0 2 2 -2 0 2 2c2,0 4,2 6,4l35 9 0 0z"/>
   <path class="fil0" d="M1140 1664l0 0c4,-2 6,0 8,0l2 0 7 0 13 0 0 0 8 0 2 0 0 0 3 0c13,-2 26,-8 39,-10l10 -3 15 -2c-2,-2 7,-6 5,-9 2,0 8,0 8,-2 0,-2 2,-6 7,-10 4,0 8,0 10,0 2,-2 -4,-2 -4,-3 -21,1 -41,7 -62,9 -7,4 -54,4 -67,2l-2 0c-5,-2 -13,-2 -18,-2l-8 0 2 2c-2,0 -6,0 -6,0 -5,0 -3,2 -2,5 0,0 -1,2 0,4l-3 -2c0,0 5,0 3,2l-5 -2c0,2 5,2 5,4 -1,0 -5,-2 -5,-2 0,0 2,2 2,2 -6,-2 -10,0 -4,2l-7 -2 0 0 3 2 -3 -2 1 2 2 0 -2 0 2 2c2,2 4,3 6,3l35 10 0 0z"/>
   <path class="fil0" d="M1140 1755l0 -2c4,0 6,2 8,2l2 -2 7 2 13 0 0 0 8 0 2 0 0 -2 3 2c13,-3 26,-7 39,-9l10 -4 15 -2c-2,-3 7,-5 5,-9 2,0 8,0 8,-2 0,-4 2,-5 7,-9 4,0 8,0 10,0 2,-2 -4,-2 -4,-4 -21,2 -41,8 -62,9 -7,4 -54,4 -67,2l-2 0c-5,-2 -13,-3 -18,-3l-8 1 2 2c-2,0 -6,-2 -6,0 -5,0 -3,2 -2,4 0,2 -1,4 0,4l-3 0c0,0 5,0 3,2l-5 -2c0,2 5,2 5,3 -1,0 -5,-3 -5,-1 0,0 2,0 2,1 -6,-1 -10,0 -4,2l-7 -2 0 0 3 2 -3 -2 1 2 2 0 -2 0 2 2c2,2 4,4 6,4l35 9 0 0z"/>
   <path class="fil0" d="M1140 1860l0 -2c4,0 6,2 8,2l2 -2 7 2 13 0 0 0 8 0 2 0 0 -2 3 0c13,-2 26,-6 39,-9l10 -2 15 -2c-2,-4 7,-6 5,-9 2,0 8,-2 8,-2 0,-4 2,-8 7,-10 4,0 8,0 10,-2 2,0 -4,0 -4,-1 -21,1 -41,7 -62,9 -7,4 -54,4 -67,2l-2 0c-5,-2 -13,-4 -18,-4l-8 2 2 2c-2,0 -6,-2 -6,-2 -5,0 -3,4 -2,6 0,1 -1,1 0,3l-3 0c0,0 5,0 3,2l-5 -2c0,2 5,2 5,4 -1,0 -5,-4 -5,-2 0,0 2,0 2,2 -6,-2 -10,-2 -4,2l-7 -2 0 0 3 2 -3 -2 1 2 2 0 -2 0 2 2c2,2 4,4 6,4l35 9 0 0z"/>
   <path class="fil0" d="M1982 1759c-1,0 -1,2 -1,-2 -2,-7 0,-13 0,-22l-2 0 0 -19 -2 -35c0,0 -2,0 -2,-2 0,-4 0,-11 0,-19l0 -2 -2 -2 0 -9c-2,-34 -5,-69 -5,-108l0 -25c0,-11 3,-26 5,-37 -4,2 0,-26 -5,-20 1,-8 3,-19 3,-21 -2,-2 -3,-7 2,-28 2,-8 8,-21 8,-22 1,-6 -6,9 -4,3 -26,58 -28,116 -32,176 0,20 6,157 9,192l0 2c0,19 2,43 4,58l4 22 2 -9c0,7 0,15 0,17 2,17 4,7 5,2 2,-6 4,2 4,-6 0,6 0,8 0,13 2,0 0,-17 2,-13l0 15c2,-2 0,-17 2,-17 0,4 -2,15 0,17 0,0 0,-6 0,-7 0,14 2,24 4,9l0 17 0 0 0 -10 0 10 0 -2 1 -8 0 6 0 -4c2,-7 2,-15 2,-18 2,-30 0,-62 -2,-92l0 0z"/>
   <path class="fil0" d="M1835 1468c0,0 0,-2 2,2 0,7 -2,13 0,20l0 0 0 19 0 33c2,-1 2,-1 2,0 0,4 0,12 0,17l0 4 0 2 0 7c3,34 5,66 7,103l2 22c2,12 0,25 0,36 4,-2 6,24 9,19 0,7 -1,18 0,18 4,2 6,8 8,26 0,8 0,19 0,21 2,4 2,-9 4,-6 0,-54 0,-106 0,-162 -2,-19 -6,-146 -6,-178l0 -3c0,-19 -2,-39 -4,-54l-5 -21 0 9c0,-7 -2,-15 -2,-18 -2,-15 -4,-6 -6,0 0,5 -2,0 -4,5l0 -11c-1,0 2,15 0,11l-1 -15c0,2 1,17 0,17 0,-4 0,-15 -2,-15 0,0 0,4 0,8 0,-15 -2,-23 -4,-10l0 -16 0 0 0 9 0 -8 -2 2 0 6 0 -6 0 6c-2,6 -2,11 -2,15l4 86 0 0z"/>
   <path class="fil0" d="M1854 1374l0 -2c3,0 5,2 9,2l0 -2 7 2 14 0 1 0 6 0 2 0 0 -2 4 0c13,-1 26,-5 41,-9l7 -2 15 -2c-2,-3 9,-5 6,-9 3,0 7,-2 7,-2 0,-4 2,-7 9,-9 2,0 8,0 8,-2 2,0 -4,0 -2,-2 -22,2 -41,8 -63,8 -6,5 -55,5 -68,3l0 0c-7,-2 -15,-3 -20,-3l-8 1 2 2c-2,0 -3,-2 -5,-2 -6,0 -4,4 -2,6 2,2 -2,2 2,4l-6 0c0,0 6,0 4,2l-6 -2c0,2 8,2 6,4 0,0 -4,-4 -6,-2 0,0 2,0 4,2 -6,-2 -9,-2 -6,1l-5 -1 0 0 3 1 -3 -1 0 0 2 1 -2 0 2 2c1,2 3,4 5,4l36 9 0 0z"/>
   <path class="fil0" d="M1854 1475l0 -2c3,0 5,2 9,2l0 0 7 0 14 0 1 0 6 0 2 0 0 0 4 0c13,-2 26,-7 41,-9l7 -4 15 -2c-2,-2 9,-5 6,-9 3,0 7,0 7,-2 0,-2 2,-6 9,-9 2,0 8,0 8,0 2,-2 -4,-2 -2,-4 -22,2 -41,7 -63,9 -6,4 -55,4 -68,2l0 0c-7,-2 -15,-2 -20,-2l-8 0 2 2c-2,0 -3,0 -5,0 -6,0 -4,2 -2,4 2,2 -2,4 2,6l-6 -2c0,0 6,0 4,2l-6 -2c0,2 8,2 6,3 0,0 -4,-1 -6,-1 0,0 2,1 4,1 -6,-1 -9,0 -6,2l-5 -2 0 0 3 2 -3 -2 0 2 2 0 -2 0 2 2c1,2 3,4 5,4l36 9 0 0z"/>
   <path class="fil0" d="M1854 1572l0 -2c3,0 5,2 9,2l0 -2 7 2 14 0 1 -2 6 2 2 0 0 -2 4 0c13,-1 26,-5 41,-9l7 -2 15 -2c-2,-3 9,-7 6,-9 3,0 7,-2 7,-2 0,-4 2,-7 9,-9 2,-2 8,0 8,-2 2,0 -4,-2 -2,-2 -22,2 -41,8 -63,8 -6,3 -55,5 -68,3l0 0c-7,-2 -15,-3 -20,-3l-8 1 2 2c-2,-2 -3,-2 -5,-2 -6,0 -4,4 -2,6 2,2 -2,2 2,4l-6 -2c0,2 6,2 4,4l-6 -2c0,2 8,2 6,3 0,0 -4,-3 -6,-1 0,0 2,0 4,0 -6,0 -9,0 -6,3l-5 -2 0 0 3 0 -3 0 0 0 2 2 -2 0 2 2c1,0 3,2 5,4l36 9 0 0z"/>
   <path class="fil0" d="M1889 1664l2 0c2,-2 6,0 7,0l0 0 8 0 15 0 0 0 7 0 2 0 0 0 4 0c13,-2 26,-8 39,-10l9 -3 14 -2c0,-2 9,-6 7,-9 2,0 6,0 7,-2 0,-2 2,-6 8,-10 4,0 7,0 9,0 0,-2 -3,-2 -3,-3 -21,1 -42,7 -62,9 -8,4 -56,4 -67,2l-2 0c-6,-2 -13,-2 -19,-2l-9 0 4 2c-2,0 -6,0 -6,0 -7,0 -4,2 -2,5 0,0 -2,2 0,4l-4 -2c-1,0 6,0 4,2l-5 -2c0,2 5,2 5,4 -2,0 -5,-2 -5,-2 0,0 1,2 1,2 -5,-2 -9,0 -3,2l-8 -2 0 0 4 2 -4 -2 2 2 2 0 -2 0 0 2c4,2 6,3 8,3l33 10 0 0z"/>
   <path class="fil0" d="M1889 1755l2 -2c2,0 6,2 7,2l0 -2 8 2 15 0 0 0 7 0 2 0 0 -2 4 2c13,-3 26,-7 39,-9l9 -4 14 -2c0,-3 9,-5 7,-9 2,0 6,0 7,-2 0,-4 2,-5 8,-9 4,0 7,0 9,0 0,-2 -3,-2 -3,-4 -21,2 -42,8 -62,9 -8,4 -56,4 -67,2l-2 0c-6,-2 -13,-3 -19,-3l-9 1 4 2c-2,0 -6,-2 -6,0 -7,0 -4,2 -2,4 0,2 -2,4 0,4l-4 0c-1,0 6,0 4,2l-5 -2c0,2 5,2 5,3 -2,0 -5,-3 -5,-1 0,0 1,0 1,1 -5,-1 -9,0 -3,2l-8 -2 0 0 4 2 -4 -2 0 2 4 0 -2 0 0 2c4,2 6,4 6,4l35 9 0 0z"/>
   <path class="fil0" d="M1889 1860l2 -2c2,0 6,2 7,2l0 -2 8 2 15 0 0 0 7 0 2 0 0 -2 4 0c13,-2 26,-6 39,-9l9 -2 14 -2c0,-4 9,-6 7,-9 2,0 6,-2 7,-2 0,-4 2,-8 8,-10 4,0 7,0 9,-2 0,0 -3,0 -3,-1 -21,1 -42,7 -62,9 -8,4 -56,4 -67,2l-2 0c-6,-2 -13,-4 -19,-4l-9 2 4 2c-2,0 -6,-2 -6,-2 -7,0 -4,4 -2,6 0,1 -2,1 0,3l-4 0c-1,0 6,0 4,2l-5 -2c0,2 5,2 5,4 -2,0 -5,-4 -5,-2 0,0 1,0 1,2 -5,-2 -9,-2 -3,2l-8 -2 0 0 4 2 -4 -2 2 2 2 0 -2 0 0 2c4,2 6,4 8,4l33 9 0 0z"/>
   <path class="fil0" d="M485 2095c2,0 -13,0 9,-2 71,-2 127,-2 198,-3l6 0c50,0 116,-2 160,7 0,-6 -2,0 -7,21 35,-6 -13,-2 -15,-4l-80 0 -159 -2c2,0 4,0 -8,0 -44,0 -104,-2 -168,-2l-28 0c-7,0 -9,0 -11,0 -28,0 -54,0 -78,2 -23,2 -32,-4 -66,7 -15,12 -29,25 -44,40 -2,7 -13,2 -8,28 9,9 17,9 23,9 9,2 20,4 29,4l60 0c79,0 159,-2 239,-4 39,-2 80,-2 120,0 33,4 102,-7 93,24 -41,19 -155,10 -231,11 -73,-1 -146,-1 -215,-1 -53,0 -110,0 -170,3 -24,4 -66,2 -80,26 -10,10 -28,21 -15,42l39 5c-15,0 230,8 181,0 67,2 168,0 174,0 15,-4 67,-5 246,-2 69,0 176,4 200,4 39,0 -90,-4 -51,-4 -257,-13 -517,-2 -767,-20 -26,26 15,-21 24,-25 32,-3 62,-7 94,-9 63,-2 127,-2 192,0 133,-5 246,24 400,-13 -4,-6 18,-37 -19,-56 -21,-6 -45,-7 -69,-9 -52,-2 -114,-2 -185,0 -73,2 -151,3 -235,3 -19,-1 -47,-3 -56,-5 3,22 24,-19 41,-24 22,-12 82,-6 121,-8 92,-2 181,0 271,2 43,0 88,2 129,2l63 2 32 0c30,-36 9,-19 20,-36 12,-45 -44,-43 -52,-43l-56 -3c-35,0 -71,0 -101,0 -63,1 -115,3 -155,3l-28 2 -63 0 -34 0c13,43 15,-2 25,2 24,-24 78,-17 121,-19 88,0 175,2 246,4 34,0 64,4 101,0 60,-11 17,-99 -17,-77 38,-11 58,43 34,68 15,-23 6,-39 6,-54 -27,-21 -34,-8 -51,-12 -28,0 -52,0 -65,0 -144,0 -62,2 -8,6 41,2 -13,2 49,4 -45,0 -67,0 -112,-2 -6,2 138,2 106,2 -43,0 -89,0 -134,0 15,0 155,2 147,3 -24,0 -125,-3 -134,-1 -2,0 43,0 65,0 -138,0 -214,3 -87,3 -45,0 -107,0 -152,0l0 0c23,0 62,0 84,0l-78 0 13 2 60 0 -53 0c13,0 28,0 45,2 62,0 122,2 155,2l101 2c8,0 58,2 28,-2 2,19 2,32 -2,28 -58,4 -132,-2 -200,-4 -67,-2 -134,-5 -203,-2 -34,-2 -82,12 -101,43l-4 6c21,52 10,15 15,26l13 0 26 0 51 -2 0 0z"/>
   <path class="fil0" d="M2632 2065c0,0 13,2 -7,2 -66,-2 -120,-5 -185,-5l-6 0c-52,1 -99,-6 -164,11 -28,18 -6,45 -7,48l0 4 0 2c28,35 9,9 16,17l4 0 21 0 74 0 148 -4c-2,0 -4,0 7,-2 41,0 97,0 157,-2l26 0c6,0 8,0 10,0 26,0 50,0 72,2 14,-2 43,2 45,0 15,11 28,24 40,36 24,-4 -51,5 -75,3 -75,0 -148,-2 -222,-2 -40,0 -77,0 -114,2 -30,10 -96,-18 -103,45 64,49 153,15 230,23 67,-4 134,-6 199,-8 49,0 103,0 157,6 30,7 54,-4 71,22 10,9 15,19 17,28 -4,-4 -22,4 -32,4 15,7 -212,17 -168,17 -61,0 -157,0 -160,1 -15,2 -64,6 -230,14 -65,1 -166,1 -189,3 -35,2 84,0 49,2 243,-11 478,0 719,-20 11,-10 9,16 30,-23 0,-15 -6,-22 -13,-30 -19,-16 -8,-16 -43,-33 -30,-2 -60,-6 -90,-8 -60,-3 -119,-2 -181,0 -110,4 -260,2 -342,8 -41,-36 110,-28 228,-28 65,0 140,3 220,2 21,-4 36,3 68,-13 -4,-53 -26,-43 -41,-64 -51,-24 -86,-9 -131,-15 -84,0 -168,2 -252,4 -41,0 -82,2 -122,2l-57 2 -28 0c28,14 3,-19 7,-19 90,-21 254,-6 314,-6l26 0 60 2 31 0c23,-47 -3,-28 -7,-45 -41,-37 -90,-22 -129,-28 -86,2 -166,6 -232,8 -29,2 -63,5 -89,4 -11,0 -8,-10 -8,-27 -2,-1 6,-28 -3,-11l22 0 -21 0 -5 0c15,-15 4,-2 7,-4l-2 10c-1,13 -1,26 0,30 -3,-6 0,-25 0,-40 -7,6 25,2 32,2 26,0 49,0 60,0 134,-3 58,-5 7,-5 -37,-2 14,-4 -44,-4 41,0 61,0 104,-2 4,0 -129,2 -101,0 41,0 86,0 129,0 -15,-2 -145,0 -140,0 23,-2 118,0 127,-2 0,0 -41,0 -61,0 128,-2 199,-2 82,-3 41,0 99,0 142,0l-2 0c-21,0 -58,0 -79,0l75 0 -13 0 -56 -2 48 2c-11,-2 -26,-2 -41,-2 -58,-2 -114,-4 -145,-4l-96 2 -22 0c-11,5 4,-13 -26,13l-2 11c2,13 -13,39 19,56 74,9 130,0 196,0 63,-2 127,-6 188,-2 32,0 55,6 71,32 36,-34 -16,-9 -20,-17l-49 -2 0 0z"/>
   <path class="fil0" d="M1979 2157c0,0 5,2 -2,2 -24,0 -41,-4 -65,-4l-2 2 -54 -2 -103 0c2,0 2,0 -2,0 -15,0 -34,0 -54,0l-10 0c-1,0 -1,0 -3,2 -10,-2 -17,-2 -25,-2 -100,2 -201,6 -311,7l-69 6c-34,2 -75,6 -109,7 6,4 -73,10 -58,12 -20,0 -52,2 -54,2 -5,1 -22,7 -80,3 -24,0 -58,-11 -67,-11 -13,-2 30,8 16,6 172,31 331,-10 499,-4 56,0 443,-4 540,2l9 0c54,4 120,5 166,5 21,0 43,-1 64,-1 -10,-2 -19,-2 -28,-2 22,0 45,0 52,-2 15,-2 15,5 28,-8 -2,-3 -2,-5 -2,-3 -4,15 -15,3 -24,5 -13,0 5,-2 -15,-2 13,0 24,-2 34,0 7,-3 -43,0 -32,-2 5,-1 45,4 26,-5 19,15 -36,0 -30,4 2,0 52,0 30,0 4,1 6,-4 -9,0 20,0 -32,-38 3,-2 -7,-12 -24,-21 -33,-41l0 0c5,11 15,22 20,26 -7,-6 -13,-13 -18,-25l1 6c4,9 10,13 15,19 -5,-6 -9,-8 -13,-15 2,5 6,9 10,13 7,7 13,15 16,19 4,-4 -9,13 12,-10l-10 0c-84,4 -171,-4 -259,-7l0 0z"/>
   <path class="fil0" d="M1241 2056c0,-2 -4,-2 4,-2 20,-2 37,-2 58,-2l2 -2 50 2 97 -2c-2,0 -2,0 2,-2 13,0 32,0 50,2l8 0c4,-2 4,-2 4,-2l24 0c93,-5 185,4 289,19l64 6c32,2 71,7 101,9 -4,-4 69,-2 54,-6 20,0 50,-1 52,-1 4,-4 23,-4 69,-19 21,-8 24,-26 23,-32 -2,-7 -2,17 -4,10 -26,41 -131,29 -198,28 -77,-6 -153,-15 -230,-27 -54,-20 -416,-11 -509,-9l-10 0c-50,4 -110,9 -153,8 -19,0 -37,0 -58,-4l24 5c-18,-1 -37,-5 -44,-7 -38,-15 -19,-4 -4,4 11,3 -6,2 13,7 -13,-4 -21,-5 -32,-11 -4,2 39,13 30,11 -13,-2 -28,-7 -39,-15 4,6 45,19 41,19 -8,0 -36,-15 -37,-15 -2,0 11,7 16,9 -39,-17 -52,-48 -26,-11 -13,-7 -22,-30 -20,-47l0 0c0,8 0,23 5,30 -5,-9 -5,-18 -5,-28l0 6c0,5 0,13 3,20 -3,-5 -3,-11 -3,-18 0,5 -2,11 2,17 7,24 29,33 39,37 84,28 168,17 248,13l0 0z"/>
   <path class="fil0" d="M1385 2366c0,0 -8,0 4,-2 33,-2 59,0 93,-2l2 -2c26,0 54,0 80,0l151 -3c0,0 -1,0 4,0 21,-2 51,-2 80,0l14 0c3,0 3,0 3,0 15,0 26,0 38,0 72,0 147,5 222,11 39,2 76,9 116,15l57 9c6,-6 30,17 19,-11l-30 0c-35,0 -69,0 -102,0 -49,-2 -112,0 -159,2 7,2 -110,7 -86,11 -32,0 -80,2 -82,4 -8,2 -32,7 -116,11 -34,0 -84,0 -97,2 -17,0 43,0 26,2 123,-2 243,-8 364,-12 60,0 122,-3 181,-1l92 3 11 0 2 0c11,-58 2,-17 4,-30l-6 0 -24 -5 -45 -8c-84,-30 -655,-37 -801,-22l-13 0c-80,4 -176,7 -245,11l-93 8c15,0 28,0 41,0 -32,1 -64,1 -77,1 -67,4 -30,4 -3,6 18,0 -6,2 24,4 -23,0 -32,0 -54,0 -2,2 65,-2 50,0 -20,0 -43,2 -63,2 7,1 72,0 69,0 -11,1 -60,0 -64,1 0,0 21,0 32,0 -65,2 -101,4 -41,4 -23,0 -51,0 -73,2l0 0c11,-2 30,-2 39,-2l-37 2 7 0 28 0 -24 0c6,0 13,2 21,2 30,0 58,2 74,0 129,-2 258,-8 387,-13l0 0z"/>
   <path class="fil0" d="M1462 2484c0,0 -8,-2 3,0 38,0 67,3 105,3l4 0c28,2 57,4 89,6 56,2 112,5 168,7 0,-2 -2,-2 4,-2 24,0 56,2 90,2l15 0c3,0 5,0 5,0 15,0 28,0 41,0 82,-2 166,-2 250,-3 17,-8 53,18 56,-19l-65 2 -132 2c-40,0 -79,2 -114,2 -56,0 -126,0 -180,0 10,1 -121,3 -95,7 -35,0 -90,0 -91,0 -8,4 -36,7 -131,9 -36,0 -93,-2 -107,0 -20,0 49,2 28,2 275,2 540,0 816,0 12,0 32,0 58,0 4,-13 23,28 13,-28l-24 0c-15,0 -33,0 -52,0 -75,0 -168,0 -263,0 -191,0 -391,-15 -473,-17l-15 -1c-88,-4 -196,-6 -272,0 -34,0 -69,3 -105,7 17,0 32,0 45,-2 -36,4 -71,6 -84,8 -77,11 -34,7 -4,5 21,0 -7,4 26,2 -24,2 -35,2 -60,8 -1,-2 73,-10 56,-6 -22,0 -48,4 -70,9 7,-2 82,-11 78,-7 -13,0 -67,4 -71,7 0,0 22,-3 34,-5 -71,11 -111,20 -45,11 -23,4 -54,7 -79,13l0 0c12,-2 32,-6 43,-8l-39 8 6 -2 31 -4 -26 4c6,0 13,-2 23,-2 31,-4 63,-7 80,-11 142,-15 286,-13 429,-7l1 0z"/>
   <path class="fil0" d="M1734 2230c0,0 8,1 -4,1 -37,2 -65,2 -100,4l-2 0c-28,2 -58,2 -86,4l-163 7c2,0 2,2 -3,2 -23,2 -53,2 -84,2l-15 0c-4,0 -4,0 -4,2 -15,0 -28,0 -39,0 -79,0 -159,2 -239,2l-62 2c-9,35 34,9 47,17l127 -2c37,0 74,-2 110,-2 50,0 118,0 168,0 -8,-4 118,-4 91,-8 36,0 86,0 88,-2 10,-1 36,-5 125,-7 36,0 90,2 101,0 21,0 -45,-2 -26,-2 -261,-2 -513,0 -779,0 -11,0 -30,0 -56,0 8,56 53,15 84,28 73,0 161,0 252,-2 183,-2 374,-17 452,-17l13 -1c86,-2 189,-4 260,-2 32,0 65,3 99,3 -15,-1 -30,-3 -41,-5 33,4 67,5 80,7 71,8 30,0 4,-5 -21,-2 7,-2 -24,-6 22,2 33,2 56,8 3,-2 -69,-10 -53,-8 21,0 45,4 68,8 -8,-4 -77,-12 -75,-12 13,0 63,10 69,10 0,0 -22,-4 -34,-6 69,11 109,15 45,4 23,4 52,9 77,13l0 0c-13,-2 -32,-6 -43,-8l39 6 -6 -2 -29 -5 26 5c-8,-2 -15,-4 -23,-5 -31,-6 -61,-13 -78,-15 -136,-17 -277,-17 -413,-13l0 0z"/>
   <path class="fil0" d="M1732 2082c0,0 8,0 -3,0 -36,2 -64,2 -99,2l-4 2c-28,0 -56,0 -86,0l-161 5c2,0 2,0 -3,0 -23,2 -53,2 -86,2l-13 0c-4,0 -6,0 -6,0 -15,0 -26,0 -39,0 -79,2 -157,2 -239,4l-60 0c-7,26 34,7 49,13l127 -2c35,0 72,-2 108,-2 52,0 118,0 170,0 -10,-2 116,-3 91,-5 34,0 84,0 86,0 10,-2 36,-6 125,-6 36,-2 90,0 101,0 21,-2 -45,-2 -26,-2 -261,-2 -513,0 -777,0 -11,0 -32,0 -56,0 4,41 51,11 82,21 71,0 161,0 252,0 182,-2 372,-10 450,-11l14 0c85,-2 188,-2 259,-2 34,0 67,2 101,2 -17,-2 -30,-2 -43,-4 34,2 67,4 80,4 73,5 32,0 4,-4 -19,-2 7,-2 -24,-4 24,2 35,2 58,4 1,-2 -71,-4 -55,-4 23,0 47,2 70,4 -10,-2 -79,-6 -75,-6 11,0 63,4 67,4 0,0 -22,-2 -34,-2 70,6 109,8 45,0 23,2 54,6 77,8l0 0c-11,0 -32,-4 -43,-4l41 4 -7 -2 -30 -2 26 2c-8,-2 -15,-2 -23,-4 -31,-4 -61,-7 -78,-9 -136,-8 -275,-8 -413,-6l0 0z"/>
   <path class="fil0" d="M1519 275c0,0 0,1 -1,0 0,-4 1,-6 1,-10l-1 0 1 -9 -1 -15 0 0 -2 -8 0 -1 0 0 0 -4c-6,-6 -8,-54 -23,-26l11 0c0,3 23,0 14,-12 -2,2 -12,-5 -12,0 -2,0 -7,-7 -7,-7 -4,-2 -8,-2 -11,-11 0,-2 0,-8 -2,-10 0,0 0,6 -2,4l4 19c13,22 13,13 15,19 13,-10 11,-10 9,-21 -2,0 -4,0 -6,-2l-9 -2 -2 0c15,38 -5,15 -4,19 2,-8 -15,13 -9,6 4,-2 11,57 9,71l0 0c0,7 0,16 0,24l2 9 2 -4c0,2 0,6 0,8 2,5 4,2 6,0 2,-2 2,2 3,-2l0 6c0,0 0,-6 2,-6l-2 7c2,0 2,-7 4,-7 0,2 -4,6 -2,7 0,0 0,-1 2,-3 -2,7 0,11 2,5l0 6 0 0 0 -4 0 4 0 0 2 -2 -2 2 2 -2c2,-4 4,-6 4,-7 3,-13 3,-27 3,-41l0 0z"/>
   <path class="fil0" d="M1314 872c9,52 0,125 17,176 5,5 -8,20 -4,28 32,29 191,16 235,20 49,4 142,24 185,8 54,-19 41,-56 41,-107 4,-26 23,-78 13,-104 -18,-45 -44,-27 -115,-30 -88,-4 -292,-47 -376,0l4 9z"/>
   <path class="fil0" d="M1394 1836c-48,0 -91,0 -136,0 -24,0 -49,0 -73,0 -13,0 -33,9 -48,9 -19,-4 -34,-24 -43,-24 -54,-13 -112,-13 -170,-13 -69,0 -73,9 -97,-49 -30,-84 18,-136 -88,-151 -54,-10 -136,0 -189,5 -87,10 -93,68 -160,92 -69,30 -144,0 -217,15 -45,9 -110,18 -101,73 191,-6 415,-49 603,-25 69,10 88,19 112,92 15,39 -15,48 19,73 21,9 60,-19 84,-10 58,30 15,204 9,273 -1,63 -95,49 -97,116 88,158 107,218 129,278 28,-45 11,-146 17,-205 0,-64 0,-68 -6,-126 0,-35 12,-48 12,-72 3,-40 -12,-69 -12,-103 -3,-97 30,-64 112,-39 142,30 312,9 452,9 107,0 215,0 322,0 57,0 112,-4 169,0 40,6 165,0 200,21 62,39 25,184 39,252 4,24 23,43 23,63 0,19 35,116 39,189 6,-82 -26,-193 52,-226 83,-34 13,-118 -41,-191 -69,-95 -102,-224 58,-244 73,-10 131,30 146,-49 9,-43 -24,-97 -10,-145 19,-68 77,-62 150,-68 30,0 157,10 117,-39 -20,-19 -278,-33 -311,-4 -58,49 0,165 -83,204 -82,43 -214,-34 -291,4 -54,24 -185,11 -252,5 -15,92 -181,92 -269,97 -61,6 -185,25 -173,-67l3 -20 0 0z"/>
   <path class="fil0" d="M2722 1610c75,-8 26,72 52,102 34,36 54,23 103,30 103,6 155,-30 172,123 17,169 17,422 -4,422 -17,-80 -34,-276 -39,-364 -6,-123 0,-102 -92,-130 -58,-15 -97,-51 -155,-30 0,-36 0,-101 -17,-138l-20 -15 0 0z"/>
   <path class="fil0" d="M322 1768c-59,-22 -97,13 -156,28 -92,30 -129,8 -135,131 -5,88 6,168 6,248 0,277 -62,49 -26,-306 15,-153 192,-160 192,-123 39,0 119,-15 119,22z"/>
   <path class="fil0" d="M989 1262c0,17 8,17 9,32 17,4 8,15 28,15 42,0 114,-13 148,-13 60,-2 121,-4 183,-6 80,-2 161,-7 243,-7 65,0 132,13 199,15 64,2 131,0 193,0 32,0 131,4 140,-13 2,-4 -34,-32 -34,-36 0,-15 -33,-9 -46,-9 -45,2 -88,4 -131,4 -114,2 -226,0 -340,-2 -189,-2 -370,13 -558,15l-34 5 0 0z"/>
   <path class="fil0" d="M1303 1171c0,17 4,35 5,50 8,4 4,15 13,15 19,0 55,-13 71,-13 30,-2 60,-4 90,-5 41,-2 80,-8 120,-8 31,0 65,11 97,15 31,2 65,0 95,0 15,0 63,4 69,-13 0,-4 -17,-32 -17,-36 0,-15 -17,-9 -22,-9 -23,2 -43,4 -66,4 -56,2 -110,-2 -166,-2 -91,-2 -181,13 -272,15l-17 -13 0 0z"/>
   <path class="fil0" d="M1025 1178c16,0 33,0 48,0 4,2 15,2 15,4 0,4 -13,13 -13,17 -2,5 15,13 13,20 -2,10 37,28 37,38 0,7 -16,3 -15,11 2,7 10,15 10,22 0,4 -39,15 -56,15 -2,0 -21,-3 -24,-3 -15,0 -8,-6 -8,-8 2,-4 -7,-7 -7,-11 1,-13 -2,-26 -2,-39 -2,-21 2,-21 3,-41l-1 -25 0 0z"/>
   <path class="fil0" d="M2111 1167c-16,0 -33,0 -48,0 -2,4 -13,2 -13,4 -2,5 11,15 11,18 2,8 -13,15 -11,23 2,9 -40,30 -40,39 0,9 19,6 17,15 -3,8 -11,15 -11,22 0,4 39,17 56,17 4,0 23,-3 24,-3 15,0 8,-6 8,-8 0,-6 7,-9 7,-15 0,-13 2,-26 4,-41 2,-22 -4,-20 -4,-45l0 -26 0 0z"/>
  </g>
  <g id="_662732000">
   <path class="fil0" d="M3404 659c0,-13 0,-20 -2,-26 -2,-6 -6,-9 -10,-11 -3,-4 -7,-6 -15,-8 0,0 0,0 0,0 -3,0 -5,0 -7,-1 0,0 0,-2 0,-4 0,-2 0,-4 2,-4 0,-2 2,-2 5,-2 2,0 6,0 15,2 10,0 17,0 25,0 13,0 26,0 39,-2 2,0 4,0 4,0 1,0 3,0 3,2 2,0 2,2 2,2 0,4 0,4 -2,6 -2,1 -3,1 -7,1 0,2 -2,2 -2,2 -6,2 -8,4 -9,6 -4,2 -6,7 -6,11 -2,6 -2,15 -2,26l0 103c0,28 0,48 2,62 4,11 7,20 11,29 8,12 17,19 30,25 13,5 26,9 43,9 17,0 32,-2 43,-7 13,-6 22,-14 32,-25 5,-7 11,-18 13,-30 2,-11 3,-31 3,-59l0 -6 0 -101c0,-11 0,-20 -1,-26 -2,-4 -6,-9 -12,-13 -1,0 -3,-2 -5,-2 -4,-2 -6,-2 -10,-4 -3,0 -7,0 -7,-1 -2,0 -2,-2 -2,-4 0,-2 0,-4 2,-4 0,-2 4,-2 6,-2 3,0 9,0 16,2 8,0 13,0 19,0 9,0 19,0 30,-2 2,0 4,0 6,0 1,0 3,0 3,2 2,0 2,2 2,2 0,2 -2,4 -2,6 -2,1 -3,1 -7,3 -4,2 -6,2 -8,4 0,0 -2,2 -3,2 -4,4 -6,7 -6,13 -2,4 -2,13 -2,24l0 94c0,35 -2,59 -5,74 -4,15 -10,28 -19,38 -9,13 -23,24 -37,29 -15,8 -34,12 -53,12 -20,0 -37,-4 -52,-10 -15,-5 -28,-13 -37,-24 -10,-11 -17,-22 -21,-37 -4,-15 -6,-38 -6,-69l0 -107 1 0z"/>
   <path class="fil0" d="M3717 829l4 -110c0,-4 0,-6 0,-9 0,-2 0,-8 0,-13 0,-19 0,-34 -4,-45 -2,-10 -7,-19 -13,-25 -5,-5 -11,-9 -19,-11 -9,-2 -13,-5 -13,-7 0,-2 2,-4 2,-4 2,-2 4,-2 6,-2 2,0 4,0 7,0 6,0 10,0 12,0l11 0c3,0 7,2 9,2 2,0 2,2 4,4l201 226c2,2 2,2 4,3 0,0 0,0 0,0 2,0 2,0 2,-1 0,-2 0,-4 0,-6l0 -144c0,-20 -2,-37 -4,-45 -2,-9 -5,-16 -11,-20 -5,-2 -11,-4 -19,-6 -7,-2 -11,-5 -11,-7 0,-2 0,-4 0,-4 2,-2 2,-2 4,-2 2,0 6,0 13,2 8,0 15,2 21,2 9,0 16,-2 26,-2 9,-2 15,-2 15,-2 3,0 5,0 7,2 0,0 2,2 2,4 0,2 -2,2 -2,3 0,0 -2,2 -5,2l0 0c-4,2 -6,4 -8,4 -4,4 -7,9 -9,17 -2,6 -2,15 -2,24l0 232c0,3 -2,7 -2,9 0,2 -2,2 -4,2 0,0 -2,0 -3,-2 0,0 -2,-2 -4,-4l-189 -214c-2,0 -2,-2 -3,-2 0,0 -2,-2 -2,-2 0,0 0,2 -2,2 0,0 0,2 0,3l-4 148c0,4 0,6 0,9 0,4 0,8 0,10 0,11 0,18 4,24 2,4 5,9 13,11 2,2 5,4 11,4l0 0c4,0 6,0 8,2 0,0 1,2 1,3 0,2 -1,4 -1,4 -2,0 -4,2 -10,2 -2,0 -7,-2 -19,-2 -11,0 -20,0 -28,0 -5,0 -11,0 -16,0 -6,0 -10,2 -10,2 -2,0 -3,-2 -3,-2 -2,0 -2,-2 -2,-4 0,-1 2,-5 7,-7l0 0c2,0 2,0 2,0 4,-2 8,-2 9,-4 12,-7 17,-24 17,-52 0,-2 0,-2 0,-2l0 0z"/>
   <path class="fil0" d="M4044 842l0 -183c0,-13 -2,-20 -4,-26 -2,-4 -5,-9 -9,-11 -4,-4 -9,-6 -15,-8 0,0 0,0 0,0 -4,0 -7,0 -7,-1 -2,0 -2,-2 -2,-4 0,-2 0,-4 2,-6 0,0 3,0 5,0 2,0 8,0 17,0 9,2 17,2 26,2 15,0 28,0 43,-2 2,0 4,0 4,0 2,0 3,0 5,2 0,0 2,2 2,4 0,2 -2,2 -2,4 -2,0 -5,1 -9,3 -4,0 -6,2 -7,2 -4,2 -6,4 -6,4 -4,4 -8,7 -9,11 0,6 -2,13 -2,26l0 183c0,11 2,21 3,26 2,6 6,10 10,13 4,4 9,6 15,6 0,0 2,0 2,0 3,2 5,2 7,4 0,0 2,2 2,3 0,2 -2,4 -2,4 -2,2 -4,2 -7,2 -4,0 -12,0 -23,-2 -9,0 -17,0 -24,0 -11,0 -24,0 -39,2 -2,0 -4,0 -4,0 -2,0 -4,0 -6,-2 -1,0 -1,-2 -1,-4 0,-3 3,-5 7,-7 2,0 2,0 2,0 2,-2 5,-2 7,-4 2,-2 4,-3 6,-3 6,-4 7,-10 9,-14 2,-5 4,-13 4,-24l0 0z"/>
   <path class="fil0" d="M4270 900l-105 -254c-2,-7 -5,-13 -9,-19 -4,-3 -7,-7 -11,-9 -2,-2 -4,-4 -10,-4 0,0 0,0 0,0l0 0c-3,0 -5,-1 -5,-5 0,-2 0,-4 2,-4 0,-2 2,-2 3,-2 2,0 4,0 6,0 11,2 22,2 32,2 7,0 13,0 20,0 8,-2 12,-2 12,-2 1,0 3,0 5,2 2,0 2,2 2,4 0,0 -4,4 -9,5 -6,4 -8,8 -8,15 0,2 0,6 2,10 0,3 2,9 6,15l78 186c0,4 2,4 2,6 2,2 4,2 4,2 2,0 2,0 3,-2 0,-2 2,-4 2,-6l62 -149c6,-15 11,-26 13,-37 4,-12 6,-19 6,-27 0,-1 -2,-3 -4,-7 -2,-2 -6,-4 -9,-4 0,-2 -2,-2 -2,-2 0,0 -2,0 -2,0 0,0 0,0 -2,0 -6,-1 -8,-3 -8,-5 0,-2 0,-4 0,-6 2,0 4,0 8,0 2,0 6,0 11,0 0,0 0,0 0,2 2,0 4,0 6,0 7,0 13,0 17,0 5,0 11,0 18,-2 2,0 4,0 4,0 0,0 2,0 2,0 0,0 0,0 2,0 2,0 3,0 3,2 2,0 2,2 2,4 0,0 0,2 -2,4 0,0 -1,1 -3,1 -2,0 -2,2 -2,2 -2,2 -4,2 -6,4 -4,4 -11,19 -22,43 -2,4 -2,6 -4,7l-95 230c-2,2 -2,4 -4,4 -2,2 -2,2 -4,2 -1,0 -3,0 -3,-2 -2,0 -2,-2 -4,-4l0 0z"/>
   <path class="fil0" d="M4473 842l0 -183c0,-11 -1,-20 -3,-26 -2,-4 -4,-9 -10,-13 -1,0 -3,-2 -5,-2 -2,-2 -6,-2 -10,-4 -3,0 -5,0 -5,-1 -2,0 -2,-2 -2,-4 0,-2 0,-4 2,-4 0,-2 2,-2 5,-2 0,0 2,0 6,0 22,2 47,2 73,2 30,0 60,0 91,-4 6,0 8,0 10,0 3,0 5,0 7,2 0,2 0,4 0,8l0 2c0,0 0,0 0,0 0,1 0,1 0,3l-2 34c-2,4 -2,5 -2,7 -1,0 -1,2 -3,2 -2,0 -4,0 -4,-2 -2,-2 -2,-3 -2,-5 0,0 0,-2 0,-2 0,-2 0,-2 0,-4 0,-9 -4,-17 -11,-20 -8,-6 -21,-8 -39,-8l-30 0c-15,0 -23,2 -26,4 -4,4 -6,7 -6,13l0 88c0,7 0,11 2,13 2,2 6,3 11,3l36 0c13,0 22,-1 28,-3 5,-2 9,-6 13,-11 2,-2 3,-6 5,-12 2,-5 4,-7 6,-7 2,0 4,0 4,2 2,2 2,3 2,7 0,0 0,6 -2,13 0,10 0,17 0,26 0,8 0,15 2,25 0,2 0,3 0,3 0,4 0,6 -2,8 -2,2 -2,2 -4,2 -4,0 -6,-4 -8,-10 0,-5 0,-9 -1,-11 -2,-5 -6,-9 -12,-13 -7,-2 -16,-4 -30,-4l-39 0c-5,0 -7,2 -9,4 -2,2 -2,6 -2,11l0 86c0,10 2,17 6,21 5,4 15,5 28,5 16,0 33,-1 48,-5 15,-4 28,-8 38,-15 5,-4 11,-8 16,-15 4,-6 8,-8 10,-8 0,0 2,0 2,2 1,0 1,2 1,4 0,6 -1,9 -3,17 -4,5 -6,11 -10,17 -7,7 -13,13 -20,16 -8,4 -15,6 -26,6 -2,0 -11,-2 -28,-2 -17,0 -32,-2 -45,-2 -26,0 -49,2 -69,4 -4,0 -6,0 -8,0 0,0 -2,0 -2,-2 -1,-2 -1,-2 -1,-4 0,-1 0,-3 1,-3 0,-2 2,-4 6,-4 0,0 2,-2 2,-2 4,-2 7,-4 11,-5 4,-4 6,-10 8,-14 0,-5 1,-13 1,-24l0 0z"/>
   <path class="fil0" d="M4746 633l0 103c0,3 0,5 4,7 2,2 9,2 18,2l4 0c28,0 47,-6 58,-15 11,-9 19,-24 19,-45 0,-20 -8,-37 -23,-50 -13,-11 -33,-17 -58,-17 -9,0 -14,0 -18,2 -4,4 -4,7 -4,13l0 0zm-34 209l0 -183c0,-13 0,-20 -1,-26 -2,-4 -6,-9 -10,-13 -2,0 -3,-2 -7,-2 -2,-2 -4,-2 -8,-4 -3,0 -5,0 -7,-1 0,0 -2,-2 -2,-4 0,-2 2,-4 2,-4 2,-2 4,-2 5,-2 2,0 8,0 17,2 10,0 17,0 25,0 3,0 13,0 26,0 15,-2 28,-2 37,-2 30,0 50,6 67,19 15,13 25,30 25,52 0,17 -6,30 -15,43 -10,13 -23,22 -40,30l49 75c2,2 4,3 6,7 20,32 35,49 46,54 2,2 6,4 11,4 4,2 8,4 8,6 0,1 -2,3 -6,5 -2,2 -9,2 -18,2 -13,0 -25,-4 -36,-11 -9,-8 -20,-21 -35,-43l-43 -69c-6,-8 -10,-11 -15,-15 -4,-2 -13,-4 -26,-4 -10,0 -15,2 -17,4 -4,2 -4,5 -4,11l0 69c0,11 0,21 2,26 4,6 7,10 11,13 4,4 9,6 17,6 0,0 2,0 2,0 4,2 5,2 7,4 2,0 2,2 2,3 0,2 0,4 -2,4 0,2 -2,2 -5,2 -2,0 -8,0 -19,-2 -11,0 -21,0 -28,0 -15,0 -30,0 -43,2 -4,0 -4,0 -6,0 -1,0 -3,0 -3,-2 -2,0 -2,-2 -2,-4 0,-3 2,-5 7,-7l2 0c2,-2 6,-2 8,-4 2,-2 3,-3 5,-3 4,-4 8,-10 10,-14 1,-3 1,-13 1,-24l0 0z"/>
   <path class="fil0" d="M4961 874l-10 -47c0,-2 0,-2 0,-3 0,0 -1,-2 -1,-4 0,-2 1,-4 1,-6 2,0 2,-2 4,-2 4,0 6,6 10,13 3,8 5,15 7,21 8,13 17,22 30,30 13,9 28,13 45,13 20,0 37,-8 50,-19 13,-11 19,-26 19,-46 0,-15 -4,-28 -13,-38 -10,-9 -28,-17 -56,-26 -34,-9 -56,-21 -67,-34 -14,-11 -21,-28 -21,-50 0,-22 9,-41 26,-56 17,-15 39,-21 67,-21 15,0 32,2 49,10 5,2 7,4 9,4 2,0 4,-2 8,-4 2,0 3,-2 3,-2 0,0 2,0 2,2 0,2 0,2 2,4l6 52c0,0 0,2 0,2 0,0 0,2 0,3 0,2 0,4 -2,4 0,2 -2,2 -4,2 -2,0 -5,-4 -7,-9 -2,-8 -6,-12 -8,-17 -9,-13 -18,-23 -28,-30 -11,-6 -24,-9 -37,-9 -19,0 -34,5 -45,15 -13,11 -19,22 -19,37 0,15 4,24 12,32 7,7 24,16 50,24 22,7 37,13 47,17 9,3 16,9 22,13 9,9 15,18 21,30 3,9 5,22 5,35 0,28 -9,49 -28,66 -18,14 -43,24 -74,24 -21,0 -38,-4 -53,-10 -13,-5 -20,-11 -22,-20l0 0z"/>
   <path class="fil0" d="M5211 842l0 -183c0,-13 -2,-20 -4,-26 -2,-4 -3,-9 -9,-11 -4,-4 -7,-6 -15,-8 0,0 0,0 0,0 -4,0 -6,0 -7,-1 -2,0 -2,-2 -2,-4 0,-2 0,-4 2,-6 1,0 3,0 7,0 0,0 6,0 15,0 9,2 19,2 26,2 15,0 30,0 43,-2 2,0 4,0 4,0 2,0 4,0 5,2 0,0 2,2 2,4 0,2 -2,2 -2,4 -1,0 -3,1 -9,3 -4,0 -6,2 -7,2 -2,2 -4,4 -6,4 -4,4 -6,7 -7,11 -2,6 -2,13 -2,26l0 183c0,11 0,21 2,26 1,6 5,10 11,13 2,4 7,6 13,6 2,0 2,0 2,0 3,2 5,2 7,4 2,0 2,2 2,3 0,2 0,4 -2,4 -2,2 -4,2 -7,2 -4,0 -12,0 -21,-2 -11,0 -19,0 -24,0 -13,0 -26,0 -39,2 -4,0 -6,0 -6,0 -2,0 -4,0 -6,-2 0,0 -1,-2 -1,-4 0,-3 3,-5 9,-7 0,0 0,0 0,0 4,-2 6,-2 7,-4 4,-2 6,-3 8,-3 4,-4 5,-10 7,-14 2,-5 4,-13 4,-24l0 0z"/>
   <path class="fil0" d="M5377 853c0,4 0,8 0,12 2,1 2,3 4,5 6,4 15,8 26,10 11,3 24,3 37,3 38,0 68,-9 88,-31 21,-21 30,-51 30,-90 0,-45 -13,-80 -39,-108 -26,-27 -62,-40 -105,-40 -16,0 -28,2 -33,6 -6,4 -8,11 -8,22l0 211 0 0zm-33 -3l0 -198c0,-11 0,-19 -2,-23 -4,-3 -6,-7 -11,-11 -4,-2 -8,-2 -12,-4 -2,0 -2,0 -2,0 -3,-1 -5,-1 -7,-1 0,-2 -2,-2 -2,-4 0,-2 2,-4 4,-4 2,-2 4,-2 5,-2 0,0 6,0 15,0 10,2 19,2 27,2 7,0 18,0 35,-2 15,0 28,0 37,0 51,0 90,13 120,38 28,26 43,61 43,106 0,45 -15,82 -45,110 -30,28 -69,41 -118,41 -13,0 -28,0 -44,0 -17,-2 -25,-2 -28,-2 -8,0 -17,0 -25,2 -9,2 -13,4 -13,4 -2,0 -4,-2 -5,-2 -2,-2 -2,-4 -2,-4 0,-2 0,-3 2,-5 1,-2 3,-2 7,-4 0,0 2,0 2,0 6,-2 7,-4 9,-6 4,-1 6,-5 8,-11 2,-4 2,-11 2,-20l0 0z"/>
   <path class="fil0" d="M5719 769l80 0c2,0 4,0 6,-2 2,0 2,-1 2,-1 0,-2 0,-4 -2,-8l0 0 -38 -99c-1,-2 -1,-2 -3,-4 0,-1 -2,-1 -2,-1 -2,0 -2,0 -4,1 0,0 -2,2 -2,4l-45 97c-1,2 -1,4 -1,4 -2,2 -2,2 -2,4 0,2 2,3 3,3 2,2 4,2 8,2l0 0zm-69 83l118 -251c0,-3 1,-3 1,-5 2,0 2,0 4,0 2,0 4,2 6,5 0,0 0,0 0,0l95 245c6,11 9,20 15,26 4,6 9,11 15,13 2,2 5,2 11,2 6,2 7,4 7,7 0,2 0,2 0,4 -1,0 -1,0 -3,0 -2,0 -8,0 -17,0 -11,-2 -22,-2 -32,-2 -11,0 -22,2 -33,2 -4,2 -6,2 -6,2 -2,0 -4,-2 -4,-2 -2,-2 -2,-2 -2,-4 0,-3 2,-5 8,-7 2,0 2,0 2,0 5,-2 9,-4 11,-6 2,-3 4,-5 4,-9 0,-2 0,-4 -2,-7 0,-2 -2,-6 -4,-10l-20 -56c-2,-5 -6,-9 -8,-11 -2,-2 -6,-2 -11,-2l-95 0c-4,0 -8,0 -10,2 -3,2 -5,8 -9,13l-21 45c-1,6 -3,9 -5,13 0,4 0,6 0,9 0,4 0,8 4,10 1,3 5,7 11,9 2,0 3,0 7,2 6,0 8,2 8,5 0,2 0,2 -2,4 0,0 -2,0 -6,0 0,0 -7,0 -17,0 -11,-2 -20,-2 -29,-2 -6,0 -10,0 -15,2 -6,0 -8,0 -10,0 -2,0 -2,0 -3,0 0,-2 -2,-4 -2,-5 0,-2 3,-4 7,-6l0 0c2,0 2,0 2,0 4,-2 7,-4 7,-4 4,-3 8,-7 12,-11 3,-6 7,-13 11,-20l0 0z"/>
   <path class="fil0" d="M6007 853c0,4 0,8 1,12 0,1 2,3 2,5 6,4 15,8 26,10 12,3 25,3 38,3 37,0 67,-9 88,-31 20,-21 29,-51 29,-90 0,-45 -13,-80 -39,-108 -26,-27 -61,-40 -104,-40 -17,0 -28,2 -34,6 -6,4 -7,11 -7,22l0 211 0 0zm-34 -3l0 -198c0,-11 0,-19 -2,-23 -2,-3 -6,-7 -11,-11 -2,-2 -8,-2 -11,-4 -2,0 -2,0 -2,0 -4,-1 -6,-1 -8,-1 0,-2 -2,-2 -2,-4 0,-2 2,-4 4,-4 2,-2 4,-2 6,-2 0,0 5,0 15,0 9,2 18,2 26,2 7,0 19,0 35,-2 17,0 28,0 38,0 50,0 89,13 119,38 28,26 43,61 43,106 0,45 -15,82 -45,110 -28,28 -69,41 -117,41 -13,0 -28,0 -45,0 -15,-2 -24,-2 -28,-2 -8,0 -17,0 -24,2 -10,2 -13,4 -13,4 -2,0 -4,-2 -6,-2 -2,-2 -2,-4 -2,-4 0,-2 0,-3 2,-5 2,-2 4,-2 7,-4 2,0 2,0 4,0 4,-2 6,-4 8,-6 3,-1 5,-5 7,-11 2,-4 2,-11 2,-20l0 0z"/>
   <path class="fil0" d="M6283 842l0 -183c0,-11 0,-20 -2,-26 -2,-4 -6,-9 -9,-13 -2,0 -6,-2 -8,-2 -2,-2 -5,-2 -7,-4 -4,0 -8,0 -8,-1 -2,0 -2,-2 -2,-4 0,-2 0,-4 2,-4 0,-2 4,-2 6,-2 2,0 4,0 5,0 23,2 47,2 73,2 30,0 60,0 92,-4 5,0 9,0 9,0 4,0 6,0 8,2 0,2 1,4 1,8l0 2c0,0 0,0 -1,0 0,1 0,1 0,3l-2 34c0,4 -2,5 -2,7 0,0 -2,2 -4,2 -2,0 -4,0 -4,-2 -1,-2 -1,-3 -1,-5 0,0 0,-2 0,-2 0,-2 0,-2 0,-4 0,-9 -4,-17 -12,-20 -7,-6 -20,-8 -39,-8l-30 0c-13,0 -22,2 -26,4 -4,4 -6,7 -6,13l0 88c0,7 0,11 2,13 2,2 6,3 12,3l35 0c13,0 22,-1 28,-3 6,-2 11,-6 13,-11 2,-2 4,-6 6,-12 2,-5 3,-7 5,-7 2,0 4,0 4,2 2,2 2,3 2,7 0,0 0,6 0,13 -2,10 -2,17 -2,26 0,8 0,15 2,25 0,2 0,3 0,3 0,4 0,6 -2,8 0,2 -2,2 -4,2 -3,0 -5,-4 -5,-10 -2,-5 -2,-9 -4,-11 -2,-5 -6,-9 -11,-13 -6,-2 -15,-4 -28,-4l-41 0c-4,0 -8,2 -10,4 -2,2 -2,6 -2,11l0 86c0,10 2,17 6,21 6,4 15,5 28,5 17,0 34,-1 49,-5 16,-4 28,-8 39,-15 5,-4 9,-8 15,-15 4,-6 7,-8 9,-8 2,0 2,0 4,2 0,0 0,2 0,4 0,6 -2,9 -4,17 -2,5 -5,11 -9,17 -8,7 -13,13 -21,16 -5,4 -15,6 -26,6 -2,0 -11,-2 -28,-2 -17,0 -32,-2 -45,-2 -24,0 -48,2 -69,4 -4,0 -5,0 -5,0 -2,0 -2,0 -4,-2 0,-2 -2,-2 -2,-4 0,-1 2,-3 2,-3 2,-2 4,-4 5,-4 2,0 2,-2 2,-2 6,-2 10,-4 12,-5 3,-4 5,-10 7,-14 2,-5 2,-13 2,-24l0 0z"/>
   <path class="fil0" d="M3756 1438c-24,17 -50,30 -78,39 -28,9 -60,13 -95,13 -69,0 -123,-20 -165,-61 -39,-43 -59,-99 -59,-170 0,-38 5,-71 17,-101 11,-32 29,-58 52,-82 18,-21 43,-38 69,-47 26,-11 56,-17 90,-17 20,0 39,2 57,6 17,3 36,11 53,18 9,4 16,10 28,15 9,8 16,12 18,12 2,0 6,-2 8,-4 4,-2 7,-4 7,-4 2,0 4,2 6,4 0,2 2,5 2,11l5 67c0,2 2,4 2,6 0,2 0,5 0,7 0,6 -2,8 -2,10 -2,1 -3,1 -5,1 -6,0 -11,-5 -17,-18 -4,-10 -8,-17 -9,-23 -19,-28 -41,-50 -68,-67 -26,-15 -54,-22 -86,-22 -50,0 -91,18 -125,54 -31,37 -46,86 -46,146 0,69 17,127 50,170 34,44 77,67 129,67 24,0 47,-6 69,-15 24,-10 45,-23 62,-39 7,-8 16,-17 24,-30 7,-13 13,-21 17,-21 2,0 3,2 3,4 2,2 2,4 2,5 0,2 0,2 0,4 0,4 -2,6 -2,8l-13 54 0 0z"/>
   <path class="fil0" d="M3966 1279l125 0c5,0 7,-2 9,-2 4,-2 4,-3 4,-5 0,-2 0,-4 -2,-10l-2 -2 -60 -153c0,-3 -2,-5 -3,-5 0,-2 -2,-4 -4,-4 -2,0 -4,2 -4,2 -2,2 -4,4 -6,5l-70 154c0,1 -2,3 -2,5 -2,2 -2,4 -2,6 0,4 2,5 3,7 4,0 8,2 14,2zm-109 127l183 -390c2,-4 4,-8 6,-8 2,-2 4,-2 5,-2 2,0 6,4 8,10 0,0 0,0 2,2l149 381c8,18 15,33 21,43 7,9 15,15 24,18 4,2 9,4 17,4 9,2 15,6 15,11 0,2 -2,4 -4,6 0,0 -2,2 -6,2 0,0 -9,-2 -26,-2 -17,-2 -33,-2 -50,-2 -17,0 -34,0 -52,4 -4,0 -8,0 -10,0 -2,0 -4,0 -4,-2 -1,-2 -3,-4 -3,-6 0,-5 3,-7 11,-11 2,0 4,0 4,0 9,-4 15,-7 18,-11 2,-4 4,-8 4,-13 0,-4 0,-6 -2,-11 0,-4 -2,-8 -4,-14l-35 -89c-2,-8 -6,-13 -9,-17 -6,-2 -12,-4 -19,-4l-148 0c-7,0 -13,2 -16,4 -4,4 -10,9 -13,21l-34 70c-4,8 -6,14 -7,19 -2,6 -2,10 -2,15 0,6 2,11 5,17 6,4 11,7 19,11 4,2 7,2 11,4 9,0 13,4 13,9 0,2 -2,4 -2,6 -2,0 -5,2 -9,2 -2,0 -11,-2 -28,-2 -17,-2 -34,-2 -47,-2 -7,0 -15,0 -22,2 -9,0 -13,2 -15,2 -2,0 -4,-2 -6,-4 -2,-2 -2,-4 -2,-6 0,-3 4,-5 12,-9l0 0c0,0 2,0 2,-2 5,-2 11,-4 13,-5 5,-4 11,-10 16,-17 6,-8 12,-19 17,-34l0 0z"/>
   <path class="fil0" d="M4360 1371l3 -172c2,-4 2,-8 2,-13 0,-4 0,-11 0,-21 0,-30 -2,-52 -7,-69 -4,-17 -12,-30 -21,-39 -7,-8 -17,-13 -30,-17 -13,-4 -18,-7 -18,-13 0,-2 1,-4 1,-6 2,-1 6,-1 12,-1 0,0 3,0 11,0 5,1 11,1 17,1l16 0c8,0 12,0 14,2 3,0 5,2 7,6l316 353c1,2 3,4 3,4 2,1 2,1 4,1 0,0 0,-1 0,-3 2,-2 2,-4 2,-8l0 -226c0,-33 -2,-56 -6,-71 -3,-13 -9,-24 -18,-30 -8,-3 -17,-7 -30,-11 -11,-2 -17,-5 -17,-11 0,-2 0,-4 2,-6 2,-1 4,-1 5,-1 0,0 8,0 19,1 11,2 23,4 34,4 13,0 26,-2 39,-4 15,-1 22,-1 24,-1 4,0 8,0 10,1 1,2 3,4 3,6 0,2 0,4 -2,6 -1,2 -3,3 -7,5l-2 0c-6,2 -9,4 -11,6 -6,5 -11,13 -13,24 -4,9 -6,23 -6,39l0 363c0,7 0,11 -2,13 0,2 -3,3 -5,3 -2,0 -4,0 -6,-1 -2,-2 -4,-4 -5,-6l-297 -336c-2,-2 -2,-2 -4,-4 -2,-2 -4,-2 -4,-2 0,0 -2,0 -2,2 -2,2 -2,4 -2,6l-5 231c0,4 0,10 0,15 0,6 0,10 0,13 0,17 2,30 5,38 4,9 10,15 21,20 4,2 9,4 19,4l0 0c5,0 9,2 9,2 2,2 4,3 4,7 0,2 -2,4 -4,6 -2,2 -6,2 -11,2 -4,0 -15,0 -32,-2 -17,0 -32,-2 -45,-2 -7,0 -15,2 -24,2 -9,2 -13,2 -15,2 -4,0 -6,0 -7,-2 0,0 -2,-2 -2,-4 0,-6 3,-9 13,-13l0 0c0,0 2,0 2,0 5,-2 11,-4 15,-6 16,-11 26,-39 28,-84 0,-1 0,-1 0,-3l0 0z"/>
   <path class="fil0" d="M4916 1410c0,7 0,15 2,19 0,3 2,5 5,7 8,7 21,11 40,17 18,4 37,5 58,5 59,0 104,-16 136,-48 32,-34 48,-80 48,-142 0,-71 -20,-127 -61,-168 -39,-41 -95,-62 -164,-62 -27,0 -43,2 -51,8 -9,5 -13,17 -13,33l0 331 0 0zm-52 -6l0 -310c0,-15 -2,-28 -4,-33 -4,-8 -9,-13 -17,-17 -4,-4 -11,-6 -18,-8 0,0 -2,0 -2,0 -6,0 -10,-1 -12,-3 -1,0 -1,-2 -1,-6 0,-2 1,-4 3,-6 2,-1 6,-1 10,-1 0,0 7,0 22,1 15,0 30,0 43,0 11,0 30,0 54,0 24,-1 45,-1 58,-1 80,0 142,18 187,59 45,40 67,96 67,165 0,72 -22,130 -69,173 -45,43 -107,66 -185,66 -20,0 -43,-2 -69,-2 -24,-2 -39,-4 -43,-4 -13,0 -26,2 -39,6 -13,2 -21,3 -21,3 -3,0 -5,-1 -7,-3 -4,-2 -4,-4 -4,-6 0,-2 0,-6 2,-7 4,-2 7,-4 13,-6 2,0 2,0 4,-2 5,-2 11,-4 13,-7 5,-4 9,-10 11,-17 4,-8 4,-19 4,-34z"/>
   <path class="fil0" d="M5357 1393l0 -286c0,-18 -2,-33 -4,-41 -4,-7 -9,-13 -17,-18 -4,-6 -11,-8 -22,-10 0,0 0,0 0,0 -6,-2 -10,-3 -11,-3 -2,-2 -4,-4 -4,-8 0,-4 2,-6 4,-7 1,0 5,-2 9,-2 2,0 11,2 24,3 15,0 30,2 43,2 23,0 45,-2 65,-3 4,0 8,-2 8,-2 4,0 6,2 7,3 2,2 2,4 2,6 0,2 0,6 -2,8 -1,0 -5,1 -13,3 -5,2 -11,4 -13,6 -3,2 -7,4 -9,5 -6,6 -9,12 -11,17 -2,8 -4,21 -4,41l0 286c0,19 2,34 4,41 3,9 9,15 17,21 5,5 13,7 22,9 2,0 2,0 2,0 5,2 9,2 11,4 2,2 4,3 4,7 0,2 -2,6 -4,6 -2,2 -6,2 -11,2 -6,0 -17,0 -34,-2 -15,0 -28,-2 -37,-2 -21,0 -41,2 -62,4 -3,0 -7,0 -7,0 -4,0 -6,0 -8,-2 -2,-2 -3,-4 -3,-6 0,-5 5,-9 13,-13 0,0 2,0 2,0 3,-2 7,-4 11,-5 3,-2 7,-4 11,-6 6,-6 9,-13 13,-21 2,-7 4,-20 4,-37l0 0z"/>
   <path class="fil0" d="M5616 1410c0,7 2,15 2,19 2,3 4,5 6,7 7,7 20,11 39,17 19,4 39,5 58,5 60,0 104,-16 138,-48 32,-34 47,-80 47,-142 0,-71 -21,-127 -60,-168 -41,-41 -97,-62 -166,-62 -26,0 -43,2 -51,8 -9,5 -13,17 -13,33l0 331 0 0zm-50 -6l0 -310c0,-15 -2,-28 -6,-33 -3,-8 -9,-13 -17,-17 -3,-4 -9,-6 -18,-8 0,0 0,0 0,0 -8,0 -11,-1 -13,-3 0,0 -2,-2 -2,-6 0,-2 2,-4 4,-6 3,-1 5,-1 11,-1 0,0 7,0 20,1 15,0 30,0 43,0 11,0 30,0 54,0 27,-1 45,-1 60,-1 79,0 140,18 185,59 47,40 69,96 69,165 0,72 -24,130 -69,173 -47,43 -108,66 -185,66 -22,0 -45,-2 -71,-2 -24,-2 -39,-4 -43,-4 -13,0 -26,2 -39,6 -13,2 -21,3 -21,3 -1,0 -5,-1 -7,-3 -2,-2 -4,-4 -4,-6 0,-2 2,-6 4,-7 2,-2 6,-4 11,-6 2,0 4,0 4,-2 7,-2 11,-4 13,-7 6,-4 9,-10 13,-17 2,-8 4,-19 4,-34l0 0z"/>
   <path class="fil0" d="M6049 1231c0,26 4,52 10,78 7,24 18,49 33,73 17,28 40,50 64,65 26,17 56,24 88,24 56,0 101,-18 134,-56 32,-35 49,-85 49,-149 0,-26 -4,-52 -13,-78 -8,-28 -21,-55 -36,-77 -19,-26 -39,-45 -63,-58 -25,-13 -53,-20 -84,-20 -55,0 -99,18 -133,54 -32,37 -49,84 -49,144l0 0zm-50 20c0,-32 6,-63 19,-93 11,-28 28,-54 52,-79 22,-22 47,-39 77,-52 28,-11 57,-17 91,-17 36,0 67,6 97,17 30,11 54,28 77,52 20,21 37,47 48,75 11,30 17,60 17,93 0,30 -6,60 -15,90 -11,28 -26,54 -45,75 -22,26 -50,46 -80,61 -30,13 -63,21 -97,21 -73,0 -131,-23 -174,-67 -45,-45 -67,-103 -67,-176l0 0z"/>
   <path class="fil0" d="M3493 1776c-2,-4 -4,-6 -4,-8 -1,-2 -3,-3 -5,-3 -2,0 -6,7 -6,22 -2,15 -4,45 -5,86l-4 106c0,8 0,17 0,28 0,10 0,23 0,40 0,26 2,44 5,54 4,11 12,18 23,26 5,4 13,5 22,7 0,0 0,0 0,0l2 0c11,4 17,8 17,13 0,4 -2,6 -4,8 -3,2 -7,4 -13,4 -2,0 -5,-2 -13,-2 -26,-2 -50,-4 -73,-4 -9,0 -20,0 -31,2 -12,2 -17,4 -17,4 -4,0 -8,-2 -10,-4 -3,-4 -3,-6 -3,-9 0,-2 0,-4 2,-6 0,-2 1,-4 3,-4 0,0 2,0 2,-2 2,0 4,0 4,0 13,-5 22,-9 28,-15 4,-3 7,-9 9,-18 6,-17 11,-58 17,-123 6,-66 7,-135 7,-211 0,-36 -3,-64 -9,-85 -5,-20 -17,-35 -32,-46 -1,-2 -7,-6 -16,-8 0,0 0,0 -2,0l0 0c-10,-3 -15,-7 -15,-13 0,-3 2,-5 4,-7 3,-2 7,-4 13,-4 1,0 7,0 18,2 10,0 19,2 26,2l6 0c2,-2 2,-2 4,-2 2,0 3,0 7,0 19,0 30,7 36,20l2 0 192 409c2,2 4,6 5,8 2,0 4,2 6,2 2,0 4,-2 4,-4 2,-2 4,-4 5,-7l206 -413c0,0 0,-2 2,-2 3,-7 9,-11 16,-11l17 0c8,0 17,0 26,-2 10,-2 15,-2 17,-2 6,0 10,2 13,4 2,2 4,4 4,7 0,6 -4,10 -15,13l0 0c-4,0 -7,0 -11,2 -4,2 -6,2 -8,4 -9,6 -14,13 -18,20 -2,8 -4,19 -4,34l0 9 8 353c0,2 0,4 0,6 1,39 11,63 28,71 3,2 9,4 16,7 0,0 2,0 2,0l0 0c10,2 15,6 15,12 0,3 -2,5 -5,7 -2,2 -8,4 -14,4 -5,0 -16,-2 -35,-2 -19,-2 -34,-2 -47,-2 -11,0 -22,0 -35,2 -13,2 -21,4 -21,4 -3,0 -7,-2 -9,-4 -2,0 -4,-2 -4,-6 0,-3 2,-5 4,-9 2,-2 6,-4 13,-6 2,0 2,0 4,-2 2,0 3,0 5,-1 10,-4 15,-10 19,-19 4,-8 6,-19 6,-36 0,-3 -2,-7 -2,-14 0,-8 0,-14 0,-19l-4 -248c-2,-14 -2,-25 -4,-30 -2,-6 -3,-8 -7,-8 -2,0 -6,2 -8,6 -3,5 -7,11 -13,20l-166 338c-4,8 -7,11 -9,15 -2,2 -6,4 -10,4 -1,0 -5,-2 -9,-6 -2,-2 -4,-7 -7,-13l-163 -345 0 0z"/>
   <path class="fil0" d="M4128 2050l0 -341c0,-23 -2,-38 -4,-47 -3,-9 -9,-17 -18,-24 -4,-2 -8,-4 -12,-6 -3,-2 -9,-4 -16,-6 -6,0 -12,-1 -13,-3 -2,-2 -2,-4 -2,-8 0,-3 0,-7 2,-9 1,-2 7,-2 13,-2 0,0 3,0 9,0 43,4 88,4 134,4 58,0 116,-2 172,-6 11,0 17,0 19,0 7,0 11,0 13,2 2,2 2,8 2,13l0 6c0,0 0,0 0,2 0,0 0,1 0,3l-6 64c0,7 -2,11 -2,13 -2,2 -3,4 -7,4 -4,0 -6,-2 -8,-4 -1,-2 -3,-6 -3,-11 0,0 0,-2 2,-4 0,-2 0,-4 0,-4 0,-20 -8,-33 -21,-41 -15,-7 -39,-11 -77,-11l-54 0c-26,0 -43,2 -50,6 -8,5 -11,13 -11,26l0 162c0,13 2,23 5,24 4,4 11,6 23,6l63 0c24,0 43,-2 54,-6 10,-3 19,-11 25,-20 3,-4 7,-11 9,-21 4,-11 7,-15 11,-15 4,0 6,2 8,4 1,4 1,8 1,13 0,2 0,10 0,26 -1,17 -1,32 -1,47 0,15 0,30 1,47 2,3 2,7 2,7 0,6 -2,9 -3,13 -2,2 -4,4 -8,4 -5,0 -11,-6 -13,-19 0,-9 -2,-15 -4,-20 -3,-10 -11,-19 -22,-23 -11,-3 -28,-7 -52,-7l-75 0c-9,0 -17,2 -19,5 -3,4 -5,10 -5,21l0 161c0,20 5,33 13,39 9,7 26,11 52,11 32,0 62,-4 92,-11 29,-8 52,-15 70,-28 10,-6 21,-15 28,-26 10,-12 15,-17 19,-17 2,0 4,0 4,4 2,1 2,5 2,9 0,7 -2,17 -6,30 -5,11 -11,22 -19,30 -11,15 -24,26 -37,31 -13,6 -28,10 -48,10 -4,0 -23,0 -55,-2 -29,-2 -57,-2 -84,-2 -44,0 -87,0 -128,4 -6,0 -10,2 -12,2 0,0 -1,-2 -5,-4 -2,-2 -2,-4 -2,-6 0,-3 0,-7 2,-9 2,-2 5,-4 13,-8 0,0 0,0 2,0 9,-3 15,-9 20,-13 6,-7 11,-15 13,-24 4,-9 4,-24 4,-45l0 0z"/>
   <path class="fil0" d="M4571 2024l7 -205c0,-4 0,-10 0,-15 0,-6 0,-15 0,-24 0,-38 -2,-64 -7,-84 -6,-19 -14,-36 -27,-47 -9,-9 -20,-15 -35,-21 -13,-3 -21,-9 -21,-15 0,-3 0,-5 2,-7 2,0 6,-2 11,-2 2,0 6,0 14,2 9,0 14,0 20,0l22 0c8,0 14,2 15,2 4,2 6,4 10,7l375 422c2,2 4,4 6,4 2,2 2,2 2,2 1,0 1,-2 1,-4 2,-2 2,-5 2,-9l0 -269c0,-39 -2,-69 -7,-86 -4,-17 -11,-28 -21,-34 -9,-5 -20,-11 -35,-13 -15,-3 -23,-9 -23,-13 0,-3 2,-5 4,-7 0,-2 4,-4 6,-4 2,0 9,2 22,4 15,2 28,4 41,4 15,0 30,-2 49,-4 17,-2 26,-4 28,-4 5,0 9,2 11,4 2,2 4,4 4,5 0,4 0,6 -2,8 -2,2 -6,4 -9,5l-2 0c-6,2 -12,4 -15,8 -6,6 -11,15 -15,28 -4,11 -6,28 -6,47l0 433c0,7 -2,13 -2,17 -2,2 -3,3 -7,3 -2,0 -4,-2 -6,-3 -4,0 -5,-4 -9,-8l-353 -399c-2,-2 -4,-4 -6,-6 -2,0 -2,-2 -2,-2 -1,0 -3,2 -3,2 -2,2 -2,4 -2,7l-8 279c0,3 0,9 0,16 0,6 0,12 0,14 0,22 2,37 6,46 6,10 13,17 26,24 6,2 13,4 23,4l0 0c5,2 9,2 13,4 2,2 2,4 2,7 0,4 -2,6 -4,8 -2,2 -8,2 -15,2 -4,0 -15,0 -36,-2 -20,-2 -37,-2 -54,-2 -7,0 -18,0 -28,2 -11,2 -18,2 -18,2 -4,0 -8,0 -10,-2 -2,-2 -2,-4 -2,-6 0,-5 6,-11 15,-15l2 0c0,0 0,0 0,0 8,-2 13,-5 17,-7 20,-13 32,-47 34,-99 0,-2 0,-4 0,-4l0 0z"/>
   <path class="fil0" d="M5235 2071c0,9 2,17 2,20 2,6 4,10 8,12 9,7 24,13 46,18 23,6 45,8 69,8 71,0 126,-19 165,-60 37,-39 58,-95 58,-168 0,-84 -25,-151 -73,-202 -49,-48 -116,-73 -198,-73 -32,0 -52,2 -62,10 -9,5 -15,18 -15,41l0 394 0 0zm-61 -8l0 -369c0,-19 -2,-32 -6,-41 -4,-8 -9,-15 -19,-21 -5,-2 -13,-6 -22,-7 0,0 -2,0 -2,0 -7,-2 -11,-2 -13,-4 -2,-2 -4,-4 -4,-8 0,-1 2,-3 6,-5 2,-2 6,-4 11,-4 0,0 9,0 26,2 17,2 36,2 53,2 13,0 33,0 63,-2 30,-2 54,-2 71,-2 93,0 168,24 222,71 53,49 81,114 81,198 0,86 -28,155 -83,205 -56,53 -128,79 -220,79 -26,0 -54,-2 -84,-2 -30,-2 -47,-2 -52,-2 -15,0 -32,0 -47,4 -15,3 -24,3 -24,3 -4,0 -6,0 -10,-1 -3,-4 -3,-6 -3,-8 0,-4 0,-7 3,-9 2,-2 8,-4 15,-8 0,0 2,0 4,-2 8,-1 13,-5 15,-7 8,-6 11,-13 15,-22 2,-8 4,-21 4,-40l0 0z"/>
   <path class="fil0" d="M5753 2050l0 -341c0,-23 -2,-38 -4,-47 -4,-9 -9,-17 -19,-24 -4,-2 -7,-4 -11,-6 -4,-2 -9,-4 -17,-6 -5,0 -11,-1 -13,-3 -2,-2 -2,-4 -2,-8 0,-3 0,-7 2,-9 2,-2 8,-2 13,-2 0,0 4,0 10,0 42,4 87,4 134,4 58,0 114,-2 172,-6 11,0 17,0 18,0 6,0 12,0 13,2 2,2 2,8 2,13l0 6c0,0 0,0 0,2 0,0 0,1 0,3l-5 64c0,7 -2,11 -2,13 -2,2 -4,4 -8,4 -3,0 -5,-2 -7,-4 -2,-2 -4,-6 -4,-11 0,0 0,-2 2,-4 0,-2 0,-4 0,-4 0,-20 -7,-33 -20,-41 -15,-7 -40,-11 -77,-11l-54 0c-26,0 -43,2 -51,6 -7,5 -11,13 -11,26l0 162c0,13 2,23 6,24 4,4 11,6 22,6l64 0c24,0 43,-2 54,-6 9,-3 19,-11 24,-20 4,-4 8,-11 9,-21 4,-11 8,-15 12,-15 3,0 5,2 7,4 2,4 2,8 2,13 0,2 0,10 0,26 -2,17 -2,32 -2,47 0,15 0,30 2,47 2,3 2,7 2,7 0,6 -2,9 -4,13 -2,2 -4,4 -7,4 -6,0 -12,-6 -13,-19 0,-9 -2,-15 -4,-20 -4,-10 -11,-19 -23,-23 -11,-3 -29,-7 -52,-7l-74 0c-10,0 -17,2 -19,5 -4,4 -6,10 -6,21l0 161c0,20 6,33 13,39 10,7 26,11 53,11 31,0 61,-4 91,-11 28,-8 52,-15 71,-28 9,-6 19,-15 28,-26 9,-12 15,-17 19,-17 2,0 3,0 3,4 2,1 2,5 2,9 0,7 -2,17 -5,30 -6,11 -11,22 -19,30 -11,15 -24,26 -37,31 -13,6 -28,10 -49,10 -4,0 -22,0 -54,-2 -30,-2 -58,-2 -84,-2 -45,0 -88,0 -129,4 -5,0 -9,2 -11,2 -2,0 -4,-2 -6,-4 -2,-2 -2,-4 -2,-6 0,-3 0,-7 2,-9 2,-2 6,-4 13,-8 0,0 0,0 2,0 10,-3 15,-9 21,-13 5,-7 11,-15 13,-24 4,-9 4,-24 4,-45l0 0z"/>
   <path class="fil0" d="M6154 2110l-17 -88c0,-2 0,-3 0,-5 0,-2 -2,-6 -2,-8 0,-5 2,-9 4,-11 0,-2 4,-2 6,-2 5,0 11,8 18,24 4,15 10,27 15,36 12,26 30,45 54,60 25,13 53,20 83,20 39,0 72,-11 95,-33 24,-21 37,-51 37,-86 0,-30 -9,-54 -28,-71 -17,-17 -52,-34 -103,-49 -61,-17 -104,-37 -128,-61 -23,-25 -34,-56 -34,-96 0,-43 15,-78 47,-104 31,-26 74,-41 125,-41 30,0 60,7 91,20 10,2 15,4 17,4 4,0 8,0 13,-4 4,-2 8,-3 8,-3 2,0 3,0 3,1 2,2 2,6 2,8l11 97c0,2 0,2 2,4 0,2 0,3 0,7 0,4 -2,6 -3,8 0,1 -4,3 -6,3 -6,0 -11,-7 -15,-18 -6,-13 -9,-23 -15,-30 -17,-26 -33,-45 -54,-56 -19,-11 -41,-17 -69,-17 -34,0 -62,9 -84,28 -23,19 -34,41 -34,69 0,26 8,45 23,60 13,13 44,30 93,45 43,13 71,22 88,31 17,8 30,15 39,25 19,16 30,33 39,54 8,20 11,43 11,69 0,50 -16,91 -50,119 -35,30 -82,45 -142,45 -37,0 -69,-5 -95,-15 -26,-11 -41,-22 -45,-39l0 0z"/>
   <g>
    <path class="fil0" d="M6337 2433l2 0 6 2c7,-2 20,4 37,9 0,-2 -2,-3 4,-2 26,10 15,4 33,8 -5,-2 -13,-4 -17,-6l40 10c-6,-4 -10,-8 -2,-8 -4,-4 11,-5 17,-9 -8,-2 -14,-4 -15,-4 1,-2 7,-2 16,0l-1 -2 1 2c4,2 12,2 17,4 -4,-2 -5,-2 -4,-2l-24 -6c0,0 0,0 2,0l-6 -1 4 1c2,2 -2,2 -5,2 -6,-2 -8,-3 -10,-3l-13 -2c-5,2 32,9 11,7l-5 -2c-10,-2 -21,-5 -28,-5 -8,-6 -26,-4 -26,-10 -34,-11 -79,-20 -112,-33 -8,2 -8,7 -25,9 -2,-2 -7,-4 -5,-4l-11 -2c5,2 14,4 16,6 -16,-2 8,6 6,6l-24 -4 3 2c40,11 79,24 118,37l0 0 0 0z"/>
    <path class="fil0" d="M5648 2302l0 4c-357,2 -831,47 -1266,84l9 -15c-115,21 -246,39 -354,60l42 -2c-39,11 -136,26 -197,32l5 -6c84,-9 -5,0 26,-13l15 -4 -7 -1 -15 3c2,-2 0,-3 13,-7l-19 2c-43,-6 -45,-15 -41,-26 -9,1 2,13 -45,13l6 -4 -51 11 -22 -2c-19,4 -30,8 -48,8l-4 9c-84,6 -189,24 -273,28 -18,9 -65,4 -112,15l23 6c52,5 169,-13 252,-17l-2 4c-17,3 -30,9 -51,9l-5 7c39,23 147,-20 179,-20 63,2 -41,20 -11,17 -69,16 61,13 91,18 84,10 264,-17 372,-28 179,-37 424,-41 592,-58 80,-3 207,-44 259,-26l152 -7 -2 5c147,-11 302,-33 442,-33 60,0 79,-11 107,0 117,13 261,-17 369,2 0,-4 17,-6 -3,-12 -58,-5 -123,-15 -127,-24l22 0 -39 -7 -26 2c-6,-2 -9,-4 -9,-6 -45,-4 -83,-13 -127,-19 -34,2 -70,4 -120,-2l0 0z"/>
   </g>
  </g>
 </g>
</svg>